<svg xmlns="http://www.w3.org/2000/svg" xmlns:xlink="http://www.w3.org/1999/xlink" width="1366" height="2022" viewBox="0 0 1366 2022"><defs><filter id="a" x="84" y="229" width="343" height="454" filterUnits="userSpaceOnUse"><feOffset dx="3" dy="4" input="SourceAlpha"/><feGaussianBlur stdDeviation="3" result="b"/><feFlood flood-opacity="0.161"/><feComposite operator="in" in2="b"/><feComposite in="SourceGraphic"/></filter><clipPath id="d"><rect width="1366" height="2022"/></clipPath></defs><g id="c" clip-path="url(#d)"><rect width="1366" height="2022" fill="#fff"/><g transform="translate(2094 81)"><text transform="translate(-1603 314)" fill="#7f7f7f" font-size="16" font-family="ArialMT, Arial"><tspan x="0" y="14"></tspan><tspan x="0" y="38"></tspan><tspan x="0" y="62">Lorem ipsum dolor sit amet, consectetur adipiscing elit. Donec malesuada magna sed ex consequat, </tspan><tspan x="0" y="86">non condimentum justo tempus. Etiam eget risus quam. Donec elit nisi, sagittis nec mi ac, auctor </tspan><tspan x="0" y="110">elementum tellus. Nam at nulla facilisis, viverra lorem in, feugiat nisl. Mauris eget diam hendrerit, varius </tspan><tspan x="0" y="134">erat eget, tempor metus. Nullam consectetur, enim sollicitudin tristique mattis, libero lectus laoreet sem, </tspan><tspan x="0" y="158">nec tincidunt enim diam in sem. Class aptent taciti sociosqu ad litora torquent per conubia nostra, per </tspan><tspan x="0" y="182">inceptos himenaeos. Sed ipsum dolor, varius vel nisi eget, pulvinar gravida metus. Ut lacinia urna a </tspan><tspan x="0" y="206">risus fringilla, id tincidunt massa bibendum. Morbi ligula elit, fermentum vel convallis vitae, venenatis ac </tspan><tspan x="0" y="230">ipsum.</tspan><tspan x="0" y="254"></tspan><tspan x="0" y="278">Nullam vitae sagittis erat. Sed eget risus non mi commodo bibendum et ut nibh. Suspendisse interdum </tspan><tspan x="0" y="302">aliquet nibh, vel lacinia metus tincidunt nec. Aenean euismod nisl in arcu faucibus vehicula. Aliquam </tspan><tspan x="0" y="326">diam dolor, rhoncus nec est a, lobortis placerat urna. Donec non vulputate turpis, in finibus dolor. Cras </tspan><tspan x="0" y="350">viverra lorem ac dui efficitur, ut congue diam malesuada. Orci varius natoque penatibus et magnis dis </tspan></text></g><g transform="translate(0 2)"><g transform="translate(792 40)" style="isolation:isolate"><text transform="translate(0 13)" fill="#325453" font-size="14" font-family="Roboto-Regular, Roboto"><tspan x="0" y="0">BOOKS</tspan></text></g><g transform="translate(901 40)"><text transform="translate(0 13)" fill="#325453" font-size="14" font-family="Roboto-Regular, Roboto"><tspan x="0" y="0">ABOUT US</tspan></text></g><g transform="translate(1039 40)"><text transform="translate(0 13)" fill="#325453" font-size="14" font-family="Roboto-Regular, Roboto"><tspan x="0" y="0">LOGIN</tspan></text></g><g transform="translate(1140 33)"><text transform="translate(19 20)" fill="#325453" font-size="14" font-family="Roboto-Regular, Roboto"><tspan x="0" y="0">SIGN UP</tspan></text><g fill="none" stroke="#325453" stroke-width="1"><rect width="91" height="30" stroke="none"/><rect x="0.5" y="0.5" width="90" height="29" fill="none"/></g></g><g transform="translate(139 33)"><path d="M12.036,31a31.583,31.583,0,0,1-6.842-.663A26.18,26.18,0,0,1,0,28.686l1.55-7.17h.838a14.793,14.793,0,0,0,4.887,2.925,17.111,17.111,0,0,0,5.99,1.033,10.032,10.032,0,0,0,4.845-.894,2.793,2.793,0,0,0,1.543-2.562,2.262,2.262,0,0,0-.251-1.075,2.751,2.751,0,0,0-.977-.894,10.339,10.339,0,0,0-1.983-.873q-1.243-.433-3.239-1a35.494,35.494,0,0,1-3.93-1.306,12.05,12.05,0,0,1-2.988-1.662,6.842,6.842,0,0,1-1.864-2.276,6.9,6.9,0,0,1-.628-3.072A8.273,8.273,0,0,1,7.784,2.681Q11.757,0,18.647,0A34.376,34.376,0,0,1,24.93.544,21.7,21.7,0,0,1,29.922,2.01L28.456,8.9H27.6a12.825,12.825,0,0,0-4.126-2.409,15.8,15.8,0,0,0-5.585-.97,10.032,10.032,0,0,0-4.629.859,2.632,2.632,0,0,0-1.627,2.381,2.506,2.506,0,0,0,.23,1.166,2.513,2.513,0,0,0,.984.9,10.039,10.039,0,0,0,2.025.873q1.4.475,3.253.977,5.027,1.34,7.177,3.156a6.06,6.06,0,0,1,2.15,4.887,8.8,8.8,0,0,1-1.166,4.559,9.076,9.076,0,0,1-3.218,3.2,16.106,16.106,0,0,1-4.887,1.906A28.623,28.623,0,0,1,12.036,31Z" transform="translate(0 0.001)" fill="#ef5d58"/><path d="M75.6,12.45a17.453,17.453,0,0,1-2.674,9.383,18.473,18.473,0,0,1-6.849,6.59,16.846,16.846,0,0,1-5.285,1.829,41.5,41.5,0,0,1-6.59.454H43.37L50.268.777h9.69a28.665,28.665,0,0,1,6.891.7,12.755,12.755,0,0,1,4.189,1.787,10.144,10.144,0,0,1,3.365,3.8A11.868,11.868,0,0,1,75.6,12.45Zm-8.049.7a7.679,7.679,0,0,0-.761-3.526,5.829,5.829,0,0,0-2.36-2.409,6.835,6.835,0,0,0-1.473-.607,10.081,10.081,0,0,0-1.689-.286c-.614-.056-1.319-.084-2.094-.084H56.8L52.383,25.205h3.19a19.547,19.547,0,0,0,2.15-.1,12.776,12.776,0,0,0,1.92-.321,9.215,9.215,0,0,0,1.871-.747,10.2,10.2,0,0,0,4.447-4.44A13.593,13.593,0,0,0,67.546,13.148Z" transform="translate(-13.092 -0.232)" fill="#ef5d58"/></g><g transform="translate(691 40)"><text transform="translate(0 13)" fill="#325453" font-size="14" font-family="Roboto-Regular, Roboto"><tspan x="0" y="0">HOME</tspan></text></g></g><g transform="matrix(1, 0, 0, 1, 0, 0)" filter="url(#a)"><rect width="325" height="436" transform="translate(90 234)" fill="#eef6fc"/></g><text transform="translate(489 266)" fill="#325453" font-size="41" font-family="Roboto-Bold, Roboto" font-weight="700"><tspan x="0" y="0">Rick and Morty</tspan></text><text transform="translate(489 329)" fill="#325453" font-size="30" font-family="Roboto-Bold, Roboto" font-weight="700"><tspan x="0" y="0">Rick and Morty</tspan></text><g transform="translate(0 1)"><path d="M14.5,0l4.133,10.4L29,11.459l-7.813,7.488L23.461,30,14.5,24.231,5.539,30,7.813,18.947,0,11.459,10.367,10.4Z" transform="translate(491 359)" fill="#e9e389"/><path d="M14.5,0l4.133,10.4L29,11.459l-7.813,7.488L23.461,30,14.5,24.231,5.539,30,7.813,18.947,0,11.459,10.367,10.4Z" transform="translate(533 359)" fill="#e9e389"/><path d="M14.5,0l4.133,10.4L29,11.459l-7.813,7.488L23.461,30,14.5,24.231,5.539,30,7.813,18.947,0,11.459,10.367,10.4Z" transform="translate(575 359)" fill="#e9e389"/><path d="M14.5,0l4.133,10.4L29,11.459l-7.813,7.488L23.461,30,14.5,24.231,5.539,30,7.813,18.947,0,11.459,10.367,10.4Z" transform="translate(617 359)" fill="#e9e389"/><g transform="translate(659 359)" fill="#fff"><path d="M 22.73196220397949 28.93570518493652 L 14.77064990997314 23.81052017211914 L 14.5 23.63629150390625 L 14.22935009002686 23.81052017211914 L 6.268039226531982 28.93570327758789 L 8.303210258483887 19.04756164550781 L 8.358909606933594 18.77693176269531 L 8.159429550170898 18.58576011657715 L 1.126679539680481 11.84616661071777 L 10.41845989227295 10.89416122436523 L 10.72012996673584 10.86325073242188 L 10.83213996887207 10.58145141601562 L 14.5 1.353656053543091 L 18.16786003112793 10.58144092559814 L 18.27986907958984 10.86324119567871 L 18.58153915405273 10.89415073394775 L 27.87332153320312 11.84616565704346 L 20.84057998657227 18.58576011657715 L 20.64109992980957 18.77693176269531 L 20.69680023193359 19.04756164550781 L 22.73196220397949 28.93570518493652 Z" stroke="none"/><path d="M 14.5 2.707300186157227 L 11.0727596282959 11.32974052429199 L 2.253339767456055 12.23334312438965 L 8.904350280761719 18.60710144042969 L 6.997575759887695 27.87141418457031 L 14.5 23.04164123535156 L 22.00242614746094 27.87141418457031 L 20.09566116333008 18.60710144042969 L 26.74666404724121 12.23334121704102 L 17.9272403717041 11.32973098754883 L 14.5 2.707300186157227 M 14.5 1.9073486328125e-06 L 18.63249969482422 10.39675140380859 L 29 11.45898056030273 L 21.18653106689453 18.94676208496094 L 23.46149063110352 30 L 14.5 24.23094177246094 L 5.538509368896484 30 L 7.813480377197266 18.94676208496094 L 0 11.45898056030273 L 10.36750030517578 10.39676094055176 L 14.5 1.9073486328125e-06 Z" stroke="none" fill="#707070"/></g><text transform="translate(721 381)" fill="#325453" font-size="20" font-family="Roboto-Medium, Roboto" font-weight="500"><tspan x="0" y="0">4/5</tspan></text></g><text transform="translate(495 433)" fill="#325453" font-size="20" font-family="Roboto-Bold, Roboto" font-weight="700"><tspan x="0" y="0">SUMMARY:</tspan></text><text transform="translate(99 736)" fill="#707070" font-size="16" font-family="ArialMT, Arial" letter-spacing="0.012em"><tspan x="0" y="14"></tspan><tspan x="0" y="44">In id sem dictum, faucibus felis vel, iaculis sapien. Vestibulum ornare placerat lorem, at tincidunt neque feugiat ac. Etiam dictum, neque vitae dictum </tspan><tspan x="0" y="74">eleifend, nisl mi imperdiet libero, et finibus metus urna id sem. Cras ullamcorper quis est ac suscipit. Duis tempus pharetra ex, vel placerat massa </tspan><tspan x="0" y="104">accumsan vel. Nulla molestie, nulla nec dapibus tristique, leo urna egestas massa, vel sollicitudin nibh elit sed ipsum. Aliquam erat volutpat. Fusce quis </tspan><tspan x="0" y="134">sodales ipsum. Donec erat urna, sodales efficitur facilisis mollis, dignissim cursus sapien. Sed non mi quis ante finibus ornare sit amet non mi. Aliquam </tspan><tspan x="0" y="164">dapibus accumsan libero et viverra. Aliquam elementum tempor tellus, ut vulputate sapien imperdiet iaculis. In hac habitasse platea dictumst.</tspan><tspan x="0" y="194"></tspan><tspan x="0" y="224">Integer at ex rhoncus, tempus sapien in, aliquam odio. Donec vel ornare nulla. Interdum et malesuada fames ac ante ipsum primis in faucibus. Fusce at </tspan><tspan x="0" y="254">ligula non leo elementum tristique eu at arcu. Aenean id varius justo, non gravida mi. Etiam metus nisi, dictum sed blandit ac, volutpat quis elit. Nulla </tspan><tspan x="0" y="284">facilisi. Cras at enim leo. Curabitur in felis euismod, venenatis eros a, scelerisque est. Nulla tellus mi, dapibus eget massa ut, viverra ultricies nisi.</tspan><tspan x="0" y="314"></tspan><tspan x="0" y="344">Donec et dolor id sem bibendum auctor. Cras in commodo enim. Donec et dolor egestas, maximus dolor vel, auctor libero. Mauris pretium lobortis eros, ac </tspan><tspan x="0" y="374">venenatis eros sodales nec. Nam ornare orci est, eget tincidunt mauris pharetra vitae. Integer lacinia cursus ante. Sed scelerisque nulla nulla, vitae </tspan><tspan x="0" y="404">tincidunt sem fermentum at. Maecenas volutpat ex nibh, sed semper dui placerat non. Quisque et justo at massa mattis pulvinar a quis leo. Sed luctus, </tspan><tspan x="0" y="434">enim ac placerat cursus, enim ex commodo turpis, id tempus massa ante vel tellus. Nam sed ipsum augue.</tspan><tspan x="0" y="464"></tspan><tspan x="0" y="494">In eu pharetra tellus. Nullam fermentum vehicula vehicula. Vestibulum ut orci id tortor mollis viverra. Vestibulum vestibulum nisi ut dolor eleifend, vel </tspan><tspan x="0" y="524">tempus dolor dignissim. Phasellus quis porta dui. Sed laoreet laoreet nunc ut consequat. Curabitur non vulputate elit. Aliquam in iaculis ante, eget luctus </tspan><tspan x="0" y="554">justo.</tspan><tspan x="0" y="584"></tspan><tspan x="0" y="614">Aenean consequat tellus id risus facilisis, et interdum mauris blandit. In hac habitasse platea dictumst. Fusce aliquam nisl sed lobortis varius. Sed erat dui, </tspan><tspan x="0" y="644">faucibus ac odio ut, tincidunt maximus nibh. Integer rutrum efficitur varius. Nunc convallis mi eu fermentum bibendum. Fusce odio lorem, accumsan facilisis </tspan><tspan x="0" y="674">dolor ullamcorper, vulputate maximus diam. Quisque ac bibendum ex. Fusce tincidunt bibendum feugiat. Sed nibh elit, placerat non sapien nec, volutpat </tspan><tspan x="0" y="704">porttitor magna. Aliquam fringilla purus vel leo rhoncus, in facilisis libero pretium. Quisque dictum dolor sit amet nunc ullamcorper commodo.</tspan><tspan x="0" y="734"></tspan><tspan x="0" y="764">Nam ultrices, nisl id gravida iaculis, est sapien vehicula nunc, id dignissim est dolor et eros. Maecenas non rhoncus elit. Donec in porta arcu, ac posuere </tspan><tspan x="0" y="794">dui. Praesent eleifend, metus placerat eleifend aliquam, lorem eros mollis risus, at vulputate sapien lectus eu lacus. Duis posuere elit vel eros posuere </tspan><tspan x="0" y="824">lacinia. Suspendisse a magna et est iaculis condimentum et ullamcorper felis. Vivamus porttitor, nisl in aliquet condimentum, lectus purus molestie lorem, </tspan><tspan x="0" y="854">in feugiat ipsum dui sed nulla. Nullam ut enim ut lorem pellentesque convallis non et justo. Nullam sed ante ultricies, tristique mi quis, porta ante. Quisque </tspan><tspan x="0" y="884">euismod gravida sem, at dignissim turpis mattis eget. Fusce vehicula velit sed euismod accumsan. Suspendisse non tellus sed justo elementum </tspan><tspan x="0" y="914">ullamcorper. Donec fermentum nisl arcu, vel feugiat sapien placerat vitae.</tspan><tspan x="0" y="944"></tspan><tspan x="0" y="974">Phasellus dignissim luctus maximus. Phasellus sit amet dictum sapien. Duis dignissim hendrerit orci quis hendrerit. Vivamus nec orci et ex consectetur </tspan><tspan x="0" y="1004">elementum quis molestie sem. Integer consectetur vel enim vel vehicula. Duis pretium nisl et dui tincidunt, nec imperdiet mi convallis. Nulla finibus sit amet </tspan></text><g transform="translate(-499 -204)"><g transform="translate(908 2006.5)"><g fill="none" stroke="#ef5d58" stroke-width="2"><rect width="148" height="48" rx="4" stroke="none"/><rect x="1" y="1" width="146" height="46" rx="3" fill="none"/></g><text transform="translate(74 28)" fill="#ef5d58" font-size="12" font-family="Roboto-Medium, Roboto" font-weight="500"><tspan x="-26.502" y="0">FOR FREE</tspan></text></g><text transform="translate(638 2065)" fill="#ef5d58" font-size="20" font-family="Roboto-Regular, Roboto"><tspan x="0" y="0">GET THE BOOK</tspan></text><line y2="165.5" transform="translate(848.5 1982.5)" fill="none" stroke="#ef5d58" stroke-width="2"/><g transform="translate(908 2019.5)"><rect width="148" height="48" rx="4" transform="translate(0 65)" fill="#ef5d58"/><text transform="translate(74 93)" fill="#fff" font-size="12" font-family="Roboto-Regular, Roboto"><tspan x="-12.861" y="0">PAID</tspan></text><text transform="translate(208 11)" fill="#ef5d58" font-size="12" font-family="Roboto-Medium, Roboto" font-weight="500"><tspan x="-20.763" y="0">(RISKY)</tspan></text></g></g><g transform="translate(0 -1950)"><g transform="translate(-20 -749)"><rect width="1366" height="58" transform="translate(20 4665)" fill="#ef5d58"/></g><g transform="translate(137 3939)"><text transform="translate(0 13)" fill="#fff" font-size="14" font-family="Roboto-Regular, Roboto"><tspan x="0" y="0">ABOUT US</tspan></text></g><g transform="translate(280 3939)"><text transform="translate(0 13)" fill="#fff" font-size="14" font-family="Roboto-Regular, Roboto"><tspan x="0" y="0">CONTACT US</tspan></text></g></g><g transform="translate(222 1617.859)"><g transform="translate(975 362.14)" fill="none" stroke="#fff" stroke-width="2"><rect width="30" height="30" stroke="none"/><rect x="1" y="1" width="28" height="28" fill="none"/></g><g transform="translate(984 371.14)"><path d="M6.028,0l-1.1,1.1L9.081,5.245H0V6.811H9.081L4.932,10.96l1.1,1.1,6.028-6.028Z" transform="translate(0 12.056) rotate(-90)" fill="#fff"/></g></g></g></svg>