<svg xmlns="http://www.w3.org/2000/svg" xmlns:xlink="http://www.w3.org/1999/xlink" width="1366" height="768" viewBox="0 0 1366 768"><defs><clipPath id="b"><rect width="1366" height="768"/></clipPath></defs><g id="a" clip-path="url(#b)"><rect width="1366" height="768" fill="#fff"/><g transform="translate(0 2)"><g transform="translate(792 40)" style="isolation:isolate"><text transform="translate(0 13)" fill="#325453" font-size="14" font-family="Roboto-Regular, Roboto"><tspan x="0" y="0">BOOKS</tspan></text></g><g transform="translate(901 40)"><text transform="translate(0 13)" fill="#325453" font-size="14" font-family="Roboto-Regular, Roboto"><tspan x="0" y="0">ABOUT US</tspan></text></g><g transform="translate(1039 40)"><text transform="translate(0 13)" fill="#325453" font-size="14" font-family="Roboto-Regular, Roboto"><tspan x="0" y="0">LOGIN</tspan></text></g><g transform="translate(1140 33)"><text transform="translate(19 20)" fill="#325453" font-size="14" font-family="Roboto-Regular, Roboto"><tspan x="0" y="0">SIGN UP</tspan></text><g fill="none" stroke="#325453" stroke-width="1"><rect width="91" height="30" stroke="none"/><rect x="0.5" y="0.5" width="90" height="29" fill="none"/></g></g><g transform="translate(139 33)"><path d="M12.036,31a31.583,31.583,0,0,1-6.842-.663A26.18,26.18,0,0,1,0,28.686l1.55-7.17h.838a14.793,14.793,0,0,0,4.887,2.925,17.111,17.111,0,0,0,5.99,1.033,10.032,10.032,0,0,0,4.845-.894,2.793,2.793,0,0,0,1.543-2.562,2.262,2.262,0,0,0-.251-1.075,2.751,2.751,0,0,0-.977-.894,10.339,10.339,0,0,0-1.983-.873q-1.243-.433-3.239-1a35.494,35.494,0,0,1-3.93-1.306,12.05,12.05,0,0,1-2.988-1.662,6.842,6.842,0,0,1-1.864-2.276,6.9,6.9,0,0,1-.628-3.072A8.273,8.273,0,0,1,7.784,2.681Q11.757,0,18.647,0A34.376,34.376,0,0,1,24.93.544,21.7,21.7,0,0,1,29.922,2.01L28.456,8.9H27.6a12.825,12.825,0,0,0-4.126-2.409,15.8,15.8,0,0,0-5.585-.97,10.032,10.032,0,0,0-4.629.859,2.632,2.632,0,0,0-1.627,2.381,2.506,2.506,0,0,0,.23,1.166,2.513,2.513,0,0,0,.984.9,10.039,10.039,0,0,0,2.025.873q1.4.475,3.253.977,5.027,1.34,7.177,3.156a6.06,6.06,0,0,1,2.15,4.887,8.8,8.8,0,0,1-1.166,4.559,9.076,9.076,0,0,1-3.218,3.2,16.106,16.106,0,0,1-4.887,1.906A28.623,28.623,0,0,1,12.036,31Z" transform="translate(0 0.001)" fill="#ef5d58"/><path d="M75.6,12.45a17.453,17.453,0,0,1-2.674,9.383,18.473,18.473,0,0,1-6.849,6.59,16.846,16.846,0,0,1-5.285,1.829,41.5,41.5,0,0,1-6.59.454H43.37L50.268.777h9.69a28.665,28.665,0,0,1,6.891.7,12.755,12.755,0,0,1,4.189,1.787,10.144,10.144,0,0,1,3.365,3.8A11.868,11.868,0,0,1,75.6,12.45Zm-8.049.7a7.679,7.679,0,0,0-.761-3.526,5.829,5.829,0,0,0-2.36-2.409,6.835,6.835,0,0,0-1.473-.607,10.081,10.081,0,0,0-1.689-.286c-.614-.056-1.319-.084-2.094-.084H56.8L52.383,25.205h3.19a19.547,19.547,0,0,0,2.15-.1,12.776,12.776,0,0,0,1.92-.321,9.215,9.215,0,0,0,1.871-.747,10.2,10.2,0,0,0,4.447-4.44A13.593,13.593,0,0,0,67.546,13.148Z" transform="translate(-13.092 -0.232)" fill="#ef5d58"/></g><g transform="translate(691 40)"><text transform="translate(0 13)" fill="#325453" font-size="14" font-family="Roboto-Regular, Roboto"><tspan x="0" y="0">HOME</tspan></text></g></g><g transform="translate(4 -37)"><text transform="matrix(1, 0, 0, 1, 139, 212)" fill="#325453" font-size="40" font-family="Roboto-Black, Roboto" font-weight="800"><tspan x="0" y="0">CONTACT US</tspan></text><path d="M0,0H241.748" transform="translate(139.5 222.077)" fill="none" stroke="#325453" stroke-linecap="round" stroke-width="3"/></g><g transform="translate(237 21)"><g transform="translate(220 220)" fill="#fff" stroke="#517174" stroke-width="2"><rect width="360" height="50" rx="10" stroke="none"/><rect x="1" y="1" width="358" height="48" rx="9" fill="none"/></g><text transform="translate(240 250)" fill="#ef5d58" font-size="16" font-family="Roboto-Regular, Roboto"><tspan x="0" y="0">John Doe</tspan></text><text transform="translate(220 209)" fill="#ef5d58" font-size="16" font-family="Roboto-Bold, Roboto" font-weight="700"><tspan x="0" y="0">Name</tspan></text></g><g transform="translate(457 351)" fill="#fff" stroke="#517174" stroke-width="2"><rect width="360" height="50" rx="10" stroke="none"/><rect x="1" y="1" width="358" height="48" rx="9" fill="none"/></g><text transform="translate(477 381)" fill="#ef5d58" font-size="16" font-family="Roboto-Regular, Roboto"><tspan x="0" y="0">error@mail.com</tspan></text><text transform="translate(457 340)" fill="#ef5d58" font-size="16" font-family="Roboto-Bold, Roboto" font-weight="700"><tspan x="0" y="0">E-mail</tspan></text><text transform="translate(457 447)" fill="#ef5d58" font-size="16" font-family="Roboto-Bold, Roboto" font-weight="700"><tspan x="0" y="0">Write the message you want to convey to us</tspan></text><g transform="translate(-353 285)"><g transform="translate(810 174)" fill="#fff" stroke="#c9d9db" stroke-linecap="round" stroke-width="3"><rect width="360" height="140" stroke="none"/><rect x="1.5" y="1.5" width="357" height="137" fill="none"/></g><text transform="translate(830 207)" fill="#ffcbc9" font-size="14" font-family="ArialMT, Arial"><tspan x="0" y="0">Type something…</tspan></text><g transform="translate(1053 314)"><rect width="117" height="50" fill="#ffa5a2"/><text transform="translate(20 29)" fill="#fff" font-size="10" font-family="Arial-BoldMT, Arial" font-weight="700"><tspan x="0" y="0">ADD COMMENT</tspan></text></g></g><g transform="translate(0 -3206)"><g transform="translate(-20 -749)"><rect width="1366" height="58" transform="translate(20 4665)" fill="#ef5d58"/></g><g transform="translate(137 3939)"><text transform="translate(0 13)" fill="#fff" font-size="14" font-family="Roboto-Regular, Roboto"><tspan x="0" y="0">ABOUT US</tspan></text></g><g transform="translate(280 3939)"><text transform="translate(0 13)" fill="#fff" font-size="14" font-family="Roboto-Regular, Roboto"><tspan x="0" y="0">CONTACT US</tspan></text></g></g></g></svg>