<svg xmlns="http://www.w3.org/2000/svg" xmlns:xlink="http://www.w3.org/1999/xlink" width="1366" height="768" viewBox="0 0 1366 768"><defs><style>.a{clip-path:url(#b);}.b{isolation:isolate;}.c,.f,.g{fill:#325453;}.c,.m,.p{font-size:14px;}.c,.j,.p{font-family:Roboto-Regular, Roboto;}.d,.r{fill:none;}.d{stroke:#325453;}.e,.j,.k{fill:#ef5d58;}.f{font-size:40px;font-family:Roboto-Black, Roboto;font-weight:800;}.h,.o,.p{fill:#fff;}.i{fill:#517174;}.j,.k{font-size:16px;}.k{font-family:Roboto-Bold, Roboto;}.k,.o{font-weight:700;}.l{fill:#c9d9db;}.m{fill:#ffcbc9;font-family:ArialMT, Arial;}.n{fill:#ffa5a2;}.o{font-size:10px;font-family:Arial-BoldMT, Arial;}.q{stroke:none;}</style><clipPath id="b"><rect width="1366" height="768"/></clipPath></defs><g id="a" class="a"><rect class="h" width="1366" height="768"/><g transform="translate(0 2)"><g class="b" transform="translate(792 40)"><text class="c" transform="translate(0 13)"><tspan x="0" y="0">BOOKS</tspan></text></g><g transform="translate(901 40)"><text class="c" transform="translate(0 13)"><tspan x="0" y="0">ABOUT US</tspan></text></g><g transform="translate(1039 40)"><text class="c" transform="translate(0 13)"><tspan x="0" y="0">LOGIN</tspan></text></g><g transform="translate(1140 33)"><text class="c" transform="translate(19 20)"><tspan x="0" y="0">SIGN UP</tspan></text><g class="d"><rect class="q" width="91" height="30"/><rect class="r" x="0.5" y="0.5" width="90" height="29"/></g></g><g transform="translate(139 33)"><path class="e" d="M12.036,31a31.583,31.583,0,0,1-6.842-.663A26.18,26.18,0,0,1,0,28.686l1.55-7.17h.838a14.793,14.793,0,0,0,4.887,2.925,17.111,17.111,0,0,0,5.99,1.033,10.032,10.032,0,0,0,4.845-.894,2.793,2.793,0,0,0,1.543-2.562,2.262,2.262,0,0,0-.251-1.075,2.751,2.751,0,0,0-.977-.894,10.339,10.339,0,0,0-1.983-.873q-1.243-.433-3.239-1a35.494,35.494,0,0,1-3.93-1.306,12.05,12.05,0,0,1-2.988-1.662,6.842,6.842,0,0,1-1.864-2.276,6.9,6.9,0,0,1-.628-3.072A8.273,8.273,0,0,1,7.784,2.681Q11.757,0,18.647,0A34.376,34.376,0,0,1,24.93.544,21.7,21.7,0,0,1,29.922,2.01L28.456,8.9H27.6a12.825,12.825,0,0,0-4.126-2.409,15.8,15.8,0,0,0-5.585-.97,10.032,10.032,0,0,0-4.629.859,2.632,2.632,0,0,0-1.627,2.381,2.506,2.506,0,0,0,.23,1.166,2.513,2.513,0,0,0,.984.9,10.039,10.039,0,0,0,2.025.873q1.4.475,3.253.977,5.027,1.34,7.177,3.156a6.06,6.06,0,0,1,2.15,4.887,8.8,8.8,0,0,1-1.166,4.559,9.076,9.076,0,0,1-3.218,3.2,16.106,16.106,0,0,1-4.887,1.906A28.623,28.623,0,0,1,12.036,31Z" transform="translate(0 0.001)"/><path class="e" d="M75.6,12.45a17.453,17.453,0,0,1-2.674,9.383,18.473,18.473,0,0,1-6.849,6.59,16.846,16.846,0,0,1-5.285,1.829,41.5,41.5,0,0,1-6.59.454H43.37L50.268.777h9.69a28.665,28.665,0,0,1,6.891.7,12.755,12.755,0,0,1,4.189,1.787,10.144,10.144,0,0,1,3.365,3.8A11.868,11.868,0,0,1,75.6,12.45Zm-8.049.7a7.679,7.679,0,0,0-.761-3.526,5.829,5.829,0,0,0-2.36-2.409,6.835,6.835,0,0,0-1.473-.607,10.081,10.081,0,0,0-1.689-.286c-.614-.056-1.319-.084-2.094-.084H56.8L52.383,25.205h3.19a19.547,19.547,0,0,0,2.15-.1,12.776,12.776,0,0,0,1.92-.321,9.215,9.215,0,0,0,1.871-.747,10.2,10.2,0,0,0,4.447-4.44A13.593,13.593,0,0,0,67.546,13.148Z" transform="translate(-13.092 -0.232)"/></g><g transform="translate(691 40)"><text class="c" transform="translate(0 13)"><tspan x="0" y="0">HOME</tspan></text></g></g><g transform="translate(4 -37)"><text class="f" transform="matrix(1, 0, 0, 1, 139, 212)"><tspan x="0" y="0">CONTACT US</tspan></text><path class="g" d="M241.748,1.5H0A1.5,1.5,0,0,1-1.5,0,1.5,1.5,0,0,1,0-1.5H241.748a1.5,1.5,0,0,1,1.5,1.5A1.5,1.5,0,0,1,241.748,1.5Z" transform="translate(139.5 222.077)"/></g><g transform="translate(237 21)"><rect class="h" width="360" height="50" rx="10" transform="translate(220 220)"/><path class="i" d="M10,2a8.009,8.009,0,0,0-8,8V40a8.009,8.009,0,0,0,8,8H350a8.009,8.009,0,0,0,8-8V10a8.009,8.009,0,0,0-8-8H10m0-2H350a10,10,0,0,1,10,10V40a10,10,0,0,1-10,10H10A10,10,0,0,1,0,40V10A10,10,0,0,1,10,0Z" transform="translate(220 220)"/><text class="j" transform="translate(240 250)"><tspan x="0" y="0">John Doe</tspan></text><text class="k" transform="translate(220 209)"><tspan x="0" y="0">Name</tspan></text></g><rect class="h" width="360" height="50" rx="10" transform="translate(457 351)"/><path class="i" d="M10,2a8.009,8.009,0,0,0-8,8V40a8.009,8.009,0,0,0,8,8H350a8.009,8.009,0,0,0,8-8V10a8.009,8.009,0,0,0-8-8H10m0-2H350a10,10,0,0,1,10,10V40a10,10,0,0,1-10,10H10A10,10,0,0,1,0,40V10A10,10,0,0,1,10,0Z" transform="translate(457 351)"/><text class="j" transform="translate(477 381)"><tspan x="0" y="0">error@mail.com</tspan></text><text class="k" transform="translate(457 340)"><tspan x="0" y="0">E-mail</tspan></text><text class="k" transform="translate(457 447)"><tspan x="0" y="0">Write the message you want to convey to us</tspan></text><g transform="translate(-353 285)"><rect class="h" width="360" height="140" transform="translate(810 174)"/><path class="l" d="M3,3V137H357V3H3M0,0H360V140H0Z" transform="translate(810 174)"/><text class="m" transform="translate(830 207)"><tspan x="0" y="0">Type something…</tspan></text><g transform="translate(1053 314)"><rect class="n" width="117" height="50"/><text class="o" transform="translate(20 29)"><tspan x="0" y="0">ADD COMMENT</tspan></text></g></g><g transform="translate(0 -3206)"><g transform="translate(-20 -749)"><rect class="e" width="1366" height="58" transform="translate(20 4665)"/></g><g transform="translate(137 3939)"><text class="p" transform="translate(0 13)"><tspan x="0" y="0">ABOUT US</tspan></text></g><g transform="translate(280 3939)"><text class="p" transform="translate(0 13)"><tspan x="0" y="0">CONTACT US</tspan></text></g></g></g></svg>