<svg xmlns="http://www.w3.org/2000/svg" width="1026.944" height="992.444" viewBox="0 0 1026.944 992.444"><defs><style>.a{fill:#517174;}.b{fill:#707070;}.c{fill:#e6e6e6;}.d{fill:#ef5d58;}.e{fill:#3f3d56;}.f{fill:#ffb6b6;}.g{fill:#db5b57;}.h{fill:#2f2e41;}.i{fill:#f2f2f2;}.j{fill:#ccc;}.k{fill:#fff;}.l{fill:#cacaca;}</style></defs><path class="a" d="M230.378,325.387a130.223,130.223,0,0,1,4.53-14.353A148.4,148.4,0,0,1,250.529,280.2c7.476-11.072,17.412-21.843,30.4-29.092,13.237-7.389,29.76-11.184,50.318-7.893,21.168,3.389,60.241,21.767,109.255,48.8,52.357,28.875,117.415,68.376,184.235,110.4,72.453,45.564,146.8,93.983,205.56,132.7,62.577,41.233,104.843,69.732,104.843,69.732a259.96,259.96,0,0,1,22.823,23.494c12.459,14.454,26.8,34.149,33.747,54.491,6.995,20.478,6.4,41.316-11.033,57.3-17.142,15.722-50.029,26.257-105.5,26.763.547-1.274-61.023,15.889-146.748,40.371-78.354,22.377-173.058,49.774-258.051,74.473-76.663,22.278-146.2,42.586-194.239,56.64-44.892,13.133-73.231,21.454-73.231,21.454a50.521,50.521,0,0,1-9.188.874,51.776,51.776,0,0,1-19.789-3.456,39.066,39.066,0,0,1-19.252-16.487c-5.169-8.572-8.622-20.77-8.7-38.161-.418-.539,4.327-34.706,11.753-86.161,7.515-52.073,17.84-122.3,28.392-193.637,10.729-72.53,21.7-146.233,30.06-202.326C224.649,363.66,230.378,325.387,230.378,325.387Z" transform="translate(0.336 0.869)"/><path class="b" d="M269.983,259.165a76.527,76.527,0,0,1,13.4-8.815,70.824,70.824,0,0,1,14.74-5.608,75.129,75.129,0,0,1,16.1-2.3,90.338,90.338,0,0,1,17.491,1.141q1.915.306,4.05.779t4.492,1.115q2.358.642,4.925,1.45t5.35,1.785q2.659.934,5.536,2.031t5.977,2.359q3.1,1.263,6.406,2.685t6.825,3.008q6.556,2.955,13.9,6.5,7.391,3.572,15.579,7.745,8.245,4.2,17.3,9.018,9.121,4.853,19.061,10.329,16.93,9.33,36.411,20.572,19.814,11.435,42.383,24.924,23.007,13.752,49.027,29.74,26.587,16.338,56.509,35.14c18.155,11.41,36.426,23,54.486,34.532,18.435,11.774,36.632,23.48,54.223,34.856,17.936,11.6,35.209,22.835,51.41,33.417,16.485,10.768,31.816,20.83,45.549,29.873,15.1,9.946,29.107,19.205,41.662,27.531,12.717,8.434,23.909,15.883,33.217,22.093,9.4,6.268,16.835,11.249,21.964,14.688,5.155,3.457,7.953,5.341,8.061,5.414l.045.03.04.035c.011.01.291.255.8.718s1.254,1.143,2.191,2.022,2.071,1.958,3.361,3.216,2.742,2.7,4.312,4.3c1.451,1.48,3.082,3.179,4.845,5.069s3.663,3.98,5.643,6.231,4.049,4.678,6.147,7.239,4.237,5.271,6.352,8.087q3.578,4.763,6.714,9.448t5.824,9.282q2.686,4.6,4.9,9.071t3.945,8.813a94.758,94.758,0,0,1,3.554,10.628,73.484,73.484,0,0,1,1.982,10.1,58.169,58.169,0,0,1,.4,9.521,48.267,48.267,0,0,1-1.194,8.881,43.973,43.973,0,0,1-5.292,12.947,46.967,46.967,0,0,1-4.174,5.8,52.442,52.442,0,0,1-5.16,5.311q-1.518,1.361-3.188,2.66t-3.48,2.528q-1.809,1.229-3.757,2.388t-4.017,2.238q-2.163,1.128-4.489,2.186t-4.8,2.038q-2.469.98-5.08,1.883t-5.343,1.722q-3.486,1.045-7.225,1.972t-7.688,1.726q-3.948.8-8.112,1.476t-8.5,1.223q-4.543.574-9.348,1.016-4.785.441-9.808.751-5,.309-10.219.487-5.2.178-10.582.225l-.776.007c-.3.051-.735.135-1.343.266s-1.39.31-2.4.551-2.238.544-3.741.924-3.272.835-5.361,1.382q-2.928.767-6.491,1.721t-7.714,2.081q-4.147,1.127-8.879,2.426-4.713,1.294-9.983,2.754-9.749,2.7-21.48,5.987-11.62,3.255-25.063,7.052-13.3,3.756-28.256,8-14.78,4.2-31.046,8.842c-17.958,5.126-37.229,10.644-57.677,16.515Q635.436,835.571,602.4,845.1q-32.136,9.268-66.635,19.253-33.494,9.694-68.726,19.92c-38.37,11.137-74.954,21.781-107.739,31.334-31.37,9.14-59.5,17.351-82.8,24.158-22.531,6.583-40.811,11.931-53.4,15.618-12.356,3.617-19.436,5.693-19.709,5.773l-.016,0s-.12.026-.337.067-.534.1-.941.163-.9.137-1.48.21-1.23.145-1.952.209c-.665.059-1.425.115-2.263.156s-1.753.069-2.734.074-2.021-.015-3.113-.067-2.229-.137-3.4-.264q-1.978-.215-3.881-.565t-3.717-.831q-1.814-.48-3.543-1.091t-3.359-1.346a40.332,40.332,0,0,1-3.942-2.044,38.975,38.975,0,0,1-9.959-8.411q-.718-.848-1.4-1.748t-1.321-1.846q-.64-.947-1.239-1.938t-1.154-2.024q-.593-1.1-1.142-2.263t-1.052-2.374q-.5-1.213-.96-2.477t-.864-2.571q-.432-1.386-.814-2.839t-.713-2.964q-.331-1.511-.61-3.078t-.5-3.182q-.237-1.694-.417-3.463t-.3-3.6q-.124-1.833-.192-3.728t-.078-3.843a1.132,1.132,0,0,1-.019-.129c0-.045-.007-.093-.007-.143s0-.1,0-.159,0-.115.007-.178.008-.157.014-.248.013-.189.021-.3.018-.221.029-.343.023-.252.036-.39q.038-.4.091-.9t.12-1.085q.067-.589.148-1.269t.175-1.449q.182-1.485.419-3.325t.526-4.029q.289-2.189.631-4.72t.734-5.4q.731-5.333,1.65-11.9t2.024-14.362q1.105-7.8,2.393-16.792t2.76-19.2q2.48-17.192,5.486-37.833,3.014-20.7,6.552-44.839,3.551-24.223,7.626-51.893,4.092-27.781,8.713-59.026c5.278-35.69,10.631-71.779,15.711-105.97,5.12-34.46,9.959-66.96,14.153-95.094,4.221-28.316,7.779-52.152,10.3-69.041,2.532-16.953,4.013-26.851,4.071-27.235l0-.024.006-.024c0-.007.042-.18.123-.5s.2-.8.367-1.4.371-1.347.621-2.2.545-1.833.886-2.909c.314-.992.684-2.124,1.112-3.373s.914-2.617,1.459-4.08,1.15-3.024,1.816-4.657,1.393-3.343,2.183-5.1q1.333-2.972,2.761-5.829t2.95-5.6q1.522-2.74,3.129-5.348t3.3-5.079q2.119-3.093,4.363-5.952t4.614-5.487q2.371-2.627,4.854-5T269.983,259.165Zm664.9,347.053c-.417-.281-3.423-2.307-8.7-5.849-5.248-3.523-12.719-8.53-22.074-14.779-9.268-6.191-20.351-13.576-32.908-21.913-12.4-8.232-26.194-17.366-41.058-27.167-13.718-9.045-29.032-19.11-45.5-29.88-16.184-10.585-33.439-21.824-51.356-33.427-17.572-11.38-35.751-23.089-54.167-34.867-18.041-11.538-36.294-23.131-54.431-34.545q-29.906-18.82-56.449-35.152-26-16-48.975-29.751-22.554-13.5-42.34-24.935-19.466-11.251-36.373-20.581-20.786-11.472-37.9-20.16-16.872-8.572-30.378-14.568-13.355-5.933-23.569-9.438a107.022,107.022,0,0,0-17.267-4.622,89.636,89.636,0,0,0-17.324-1.146,74.425,74.425,0,0,0-15.944,2.256,70.018,70.018,0,0,0-14.591,5.534,75.525,75.525,0,0,0-13.26,8.709q-2.563,2.089-5.025,4.441t-4.8,4.945q-2.34,2.592-4.566,5.427t-4.319,5.889q-1.677,2.445-3.274,5.035t-3.1,5.3q-1.507,2.713-2.927,5.552t-2.74,5.782c-.784,1.747-1.506,3.443-2.168,5.065s-1.262,3.169-1.8,4.622-1.024,2.809-1.45,4.05-.793,2.363-1.1,3.348c-.321,1.012-.6,1.934-.84,2.75s-.44,1.528-.6,2.121-.286,1.069-.373,1.412-.138.556-.154.623c-.1.677-1.6,10.663-4.122,27.566-2.517,16.838-6.049,40.486-10.233,68.541-4.157,27.876-8.95,60.047-14.023,94.171-5.034,33.859-10.34,69.609-15.579,105.011q-4.6,31.11-8.69,58.83-4.068,27.595-7.621,51.815-3.539,24.122-6.564,44.874-3.014,20.678-5.513,37.979-1.48,10.245-2.783,19.332-1.3,9.071-2.423,16.967t-2.058,14.575q-.937,6.681-1.69,12.152-.4,2.936-.758,5.545t-.656,4.878q-.3,2.27-.553,4.2t-.447,3.5c-.163,1.308-.292,2.38-.394,3.257s-.175,1.56-.228,2.093-.086.913-.106,1.185-.026.437-.026.536l.026.033v.211a110.925,110.925,0,0,0,.829,13.4,77.513,77.513,0,0,0,2.351,11.681,55.517,55.517,0,0,0,3.879,9.955,42.813,42.813,0,0,0,5.425,8.211,38.419,38.419,0,0,0,2.934,3.1,37.905,37.905,0,0,0,3.251,2.742,38.3,38.3,0,0,0,3.561,2.376,39.68,39.68,0,0,0,3.863,2q1.612.726,3.316,1.326t3.5,1.074q1.8.474,3.672.817t3.836.555a57.184,57.184,0,0,0,6.166.324c1.9,0,3.6-.094,5.044-.218s2.619-.281,3.452-.41,1.322-.231,1.391-.245c.388-.114,7.61-2.237,20.123-5.91,12.756-3.744,31.222-9.161,53.948-15.818,23.506-6.885,51.861-15.183,83.454-24.412,33.027-9.648,69.853-20.39,108.438-31.618q35.454-10.317,69.226-20.116,34.671-10.059,67.027-19.414,33.134-9.579,63.249-18.246c20.5-5.9,39.784-11.434,57.719-16.565q16.229-4.642,30.962-8.836,14.874-4.234,28.079-7.97,13.313-3.766,24.789-6.986,11.552-3.241,21.107-5.889,5.154-1.428,9.744-2.689t8.61-2.352q4.017-1.09,7.417-2t6.167-1.628q1.431-.372,2.7-.7t2.371-.6q1.1-.275,2.032-.5t1.682-.4q.387-.089.731-.164t.644-.138q.3-.062.555-.111t.464-.084c.14-.024.272-.045.4-.062s.243-.03.354-.036a2.248,2.248,0,0,1,.315,0,1.311,1.311,0,0,1,.281.054q5.315-.054,10.448-.235t10.088-.492q4.954-.311,9.681-.751t9.225-1.01q4.305-.547,8.419-1.218t8.032-1.467q3.918-.8,7.609-1.713t7.146-1.955a112.129,112.129,0,0,0,18.146-7.091,71.429,71.429,0,0,0,14.14-9.193,49.465,49.465,0,0,0,9.92-11.244,42.613,42.613,0,0,0,5.533-13.216,47.18,47.18,0,0,0,1.166-8.7,57.076,57.076,0,0,0-.4-9.336,72.31,72.31,0,0,0-1.95-9.918,93.509,93.509,0,0,0-3.492-10.444q-1.707-4.286-3.9-8.723t-4.85-8.983q-2.655-4.545-5.767-9.2t-6.65-9.366c-3.923-5.228-7.925-10.091-11.729-14.452-3.791-4.345-7.387-8.193-10.518-11.411s-5.786-5.795-7.724-7.628S935.112,606.42,934.884,606.218Z" transform="translate(0 0)"/><g transform="translate(167.389 301.363)"><path class="c" d="M0,15.9,99.981,30.514V26.5a16.617,16.617,0,0,0-.851-5.234,16.116,16.116,0,0,0-2.316-4.491,13.344,13.344,0,0,0-3.421-3.269,10.11,10.11,0,0,0-4.166-1.584L9.376,1.253a7.021,7.021,0,0,0-3.666.471A7.975,7.975,0,0,0,2.732,3.939a10.9,10.9,0,0,0-2,3.6A14.465,14.465,0,0,0,0,12.176Z" transform="translate(0 433.689)"/><path class="c" d="M3.761,441.2l-3.04-1.948a437.784,437.784,0,0,0,17.684-77.392,605.1,605.1,0,0,0,5.607-85.41A703.046,703.046,0,0,0,18.3,189.4,675.7,675.7,0,0,0,2.575,106.9,79.1,79.1,0,0,1,.009,87.872a87.425,87.425,0,0,1,1.9-19.354,89.05,89.05,0,0,1,6.15-18.64,83.35,83.35,0,0,1,10.25-16.846A73.455,73.455,0,0,1,31.436,19.856a58.685,58.685,0,0,1,14.91-8.427A48.713,48.713,0,0,1,62.295,8.208,45.4,45.4,0,0,1,78.461,10.7a34.352,34.352,0,0,1,12.73,7.525A32.133,32.133,0,0,1,98.6,29.179a51.672,51.672,0,0,1,3.4,13.279,111.094,111.094,0,0,1,.809,14.491l-3.79.559a103,103,0,0,0-.885-14.589,45.4,45.4,0,0,0-3.332-12.176,27.958,27.958,0,0,0-6.757-9.427,31.91,31.91,0,0,0-11.081-6.355A42.516,42.516,0,0,0,61.84,12.58a45.586,45.586,0,0,0-14.951,2.975,54.918,54.918,0,0,0-14,7.867A68.78,68.78,0,0,0,20.553,35.764,78.228,78.228,0,0,0,10.888,51.6a83.629,83.629,0,0,0-5.8,17.542,82.112,82.112,0,0,0-1.8,18.223A74.274,74.274,0,0,0,5.711,105.28a680.576,680.576,0,0,1,15.948,83.542,707.608,707.608,0,0,1,5.754,88.023,609.715,609.715,0,0,1-5.731,86.261A442.017,442.017,0,0,1,3.761,441.2Z" transform="translate(46.664)"/><path class="c" d="M13.123,1.648a10.921,10.921,0,0,1,5.175.587,11.389,11.389,0,0,1,4.254,2.829A13.721,13.721,0,0,1,25.434,9.7a16.806,16.806,0,0,1,1.06,5.977,18.821,18.821,0,0,1-1.06,6.215,18.331,18.331,0,0,1-2.883,5.279A15.687,15.687,0,0,1,18.3,30.951,12.572,12.572,0,0,1,13.123,32.7,10.891,10.891,0,0,1,7.985,32a11.45,11.45,0,0,1-4.167-2.88,13.8,13.8,0,0,1-2.8-4.6A16.837,16.837,0,0,1,0,18.645a18.818,18.818,0,0,1,1.022-6.106,18.382,18.382,0,0,1,2.8-5.228A15.814,15.814,0,0,1,7.985,3.5,12.692,12.692,0,0,1,13.123,1.648Z" transform="translate(133.512 90.1)"/><path class="c" d="M7.329,30.233V.382L3.322.838V30.6a6.017,6.017,0,0,0-1.569,1.282,6.939,6.939,0,0,0-1.111,1.74,7.367,7.367,0,0,0-.577,2.024A7.093,7.093,0,0,0,.1,37.789,6.259,6.259,0,0,0,.759,39.73a5.309,5.309,0,0,0,1.174,1.477,4.643,4.643,0,0,0,1.563.9,4.5,4.5,0,0,0,1.827.218A4.982,4.982,0,0,0,7.155,41.8a5.9,5.9,0,0,0,1.574-1.174,6.826,6.826,0,0,0,1.187-1.689,7.331,7.331,0,0,0,.671-2.072,7.147,7.147,0,0,0,.033-2.159,6.379,6.379,0,0,0-.585-1.933,5.417,5.417,0,0,0-1.124-1.545,4.675,4.675,0,0,0-1.581-1Z" transform="translate(160.006 102.183)"/><path class="d" d="M79.486,26.239a27.377,27.377,0,0,0-1.814-9.96,22.188,22.188,0,0,0-4.907-7.626,18.358,18.358,0,0,0-15.947-5.3L20.884,8.674a20.54,20.54,0,0,0-8.2,3.181,26.128,26.128,0,0,0-6.628,6.31,30.567,30.567,0,0,0-4.433,8.524A31.116,31.116,0,0,0,0,36.564a27.416,27.416,0,0,0,1.618,9.454A22.008,22.008,0,0,0,6.051,53.39a17.952,17.952,0,0,0,6.628,4.588,17.106,17.106,0,0,0,8.2,1.05l35.936-4.017a21.7,21.7,0,0,0,8.734-3.026,27.041,27.041,0,0,0,7.212-6.414,31.433,31.433,0,0,0,6.721-19.332Z" transform="translate(107.54 50.836)"/><path class="e" d="M175.133,125.491a269.473,269.473,0,0,0-5.442-37.772c-2.323-10.828-4.889-20.04-6.905-28-2.011-7.936-3.478-14.635-3.618-20.479s1.048-10.849,4.36-15.411a30.292,30.292,0,0,1,13.431-9.951,57.1,57.1,0,0,1,19.187-3.79,83.136,83.136,0,0,1,21.752,2.17,78.43,78.43,0,0,1,20.792,7.976C256,30.066,270.86,48.814,281.981,73.086c11.276,24.612,18.592,54.661,20.656,86.339,2.07,31.758-1.166,64.742-10.81,94.924-9.531,29.827-25.174,56.456-47.673,76.027-20.8,18.093-45.517,28.448-70.917,32.753a182.688,182.688,0,0,1-72.749-2.9c-22.321-5.378-42.771-14.574-59.119-26.208C25.4,322.664,13.175,308.854,6.744,293.7A89.615,89.615,0,0,1,.269,267.809a56.841,56.841,0,0,1,.308-13.717,30.694,30.694,0,0,1,4.194-11.8c5.432-8.513,14.542-10.615,25.842-9.534,11.491,1.1,25.322,5.5,39.893,9.86,14.881,4.456,30.562,8.883,45.235,9.706,14.977.84,28.855-2.077,39.608-12.512,6.447-6.256,11.069-14.537,14.33-23.946a132.275,132.275,0,0,0,6.166-30.758,267.454,267.454,0,0,0,.819-31.947C176.377,142.927,175.7,133.417,175.133,125.491Z" transform="translate(67.56 113.085)"/><path class="f" d="M8.227,1.207a5.843,5.843,0,0,1,1.921,1.505,6.788,6.788,0,0,1,1.214,2.162,7.585,7.585,0,0,1,.409,2.544,7.773,7.773,0,0,1-.492,2.646q-.049.127-.1.251t-.112.246q-.058.122-.121.241t-.13.235L23.674,30.06l-6.445,10.9L2.31,12.779A6.3,6.3,0,0,1,.967,11.154,7.115,7.115,0,0,1,.19,9.162a7.743,7.743,0,0,1,.295-4.4A6.892,6.892,0,0,1,1.8,2.6,6.022,6.022,0,0,1,3.662,1.192,5.3,5.3,0,0,1,5.838.665a5.079,5.079,0,0,1,2.245.473l.036.017.036.017.036.018Z" transform="translate(187.78 210.358)"/><path class="g" d="M2.654,29.359a.445.445,0,0,0-.082.619,1.309,1.309,0,0,0,.813.413,3.518,3.518,0,0,0,1.429-.056,5.271,5.271,0,0,0,1.765-.791c.175-.12.326-.223.454-.308s.234-.151.32-.2a.733.733,0,0,1,.2-.085.091.091,0,0,1,.1.033c.049.077.014.28-.061.62s-.192.818-.3,1.445a20.957,20.957,0,0,0-.283,2.343,26.325,26.325,0,0,0,0,3.315,7.506,7.506,0,0,0,.89,2.737,27.3,27.3,0,0,0,2.159,3.476c.894,1.255,1.944,2.59,3.091,3.962s2.4,2.786,3.685,4.192c1.745,1.9,3.566,3.8,5.317,5.567s3.441,3.423,4.909,4.835,2.723,2.591,3.608,3.413,1.4,1.292,1.4,1.292l2.912-2.555L66.219,36.176l5.4-8.16q-.186-1.2-.419-2.386t-.511-2.36q-.278-1.173-.6-2.332t-.693-2.3q-.508-1.579-1.063-3.137t-1.156-3.09q-.6-1.532-1.248-3.04T64.589,6.387q-.371-.805-.745-1.59T63.1,3.253q-.373-.759-.743-1.492T61.62.327L44.827,21.016,31.038,38s-.249-.443-.669-1.136-1.013-1.637-1.7-2.639A34.583,34.583,0,0,0,26.4,31.232a11.29,11.29,0,0,0-2.384-2.192,2.792,2.792,0,0,0-.3-.183,2.707,2.707,0,0,0-.318-.141,2.636,2.636,0,0,0-.331-.1,2.6,2.6,0,0,0-.341-.054,3.507,3.507,0,0,1-1.751-.424,1.238,1.238,0,0,1-.586-1.128,4.13,4.13,0,0,1,.658-1.88,18.19,18.19,0,0,1,1.985-2.687,6.277,6.277,0,0,0,1.312-1.806c.03-.234-.3-.169-.837-.005a19.426,19.426,0,0,1-2.1.578,5.021,5.021,0,0,1-2.476-.055,11.025,11.025,0,0,1-1.342-.478c-.158-.091-.08-.144.075-.25a1.488,1.488,0,0,0,.542-.567,2.032,2.032,0,0,0,.06-1.43,5.975,5.975,0,0,0-1.766-2.4,32.364,32.364,0,0,0-3.226-2.618c-1.14-.826-2.257-1.566-3.088-2.1s-1.377-.859-1.377-.859l-.364.375L1.87,17.547,0,19.459s.127.394.328,1.006.473,1.442.763,2.315.6,1.787.87,2.567.5,1.425.646,1.758.266.587.361.794a2.031,2.031,0,0,1,.183.512.644.644,0,0,1-.077.423A2.541,2.541,0,0,1,2.654,29.359Z" transform="translate(193.364 215.319)"/><path class="f" d="M.255,14.188,0,5.413l27.093-3.8.393,13.22Z" transform="translate(41.413 342.968)"/><path class="h" d="M17.35,29.261,17.6,15.2l-4.753-.073L5.249,1.765A3.664,3.664,0,0,0,4.578.9a2.914,2.914,0,0,0-.82-.549,2.407,2.407,0,0,0-.9-.207A2.286,2.286,0,0,0,1.94.311a2.6,2.6,0,0,0-.816.527A3.261,3.261,0,0,0,.5,1.65,4.028,4.028,0,0,0,.116,2.678,4.611,4.611,0,0,0,0,3.849L.478,20.379l4.7,2.951L.592,24.343l.18,6.237Z" transform="translate(29.157 330.884)"/><path class="h" d="M157.677,55.612,57.666,51.135s-2.511-.015-6.407-.162c-3.874-.147-9.1-.425-14.574-.95A127.439,127.439,0,0,1,20.74,47.617c-4.813-1.113-8.831-2.582-11.033-4.526L.5,40.979,0,24.084s.349.024.924.032,1.377,0,2.28-.056a21.3,21.3,0,0,0,2.9-.375,10.7,10.7,0,0,0,2.762-.928,4.185,4.185,0,0,0,1.58-1.333,5.53,5.53,0,0,0,.53-1.081c.115-.26.225-.389.5-.3a6.5,6.5,0,0,1,1.5,1.01c.782.615,1.348,1.092,1.795,1.448a5,5,0,0,0,1.082.72,1.56,1.56,0,0,0,.95.087,8.967,8.967,0,0,0,1.4-.451c.609-.229,8.092-1.334,19.124-2.883C48.542,18.4,63.543,16.348,78.8,14.282c15.594-2.112,31.454-4.24,43.563-5.86,12.317-1.648,20.616-2.751,20.616-2.751Z" transform="translate(52.789 317.311)"/><path class="f" d="M5.174,34.27,0,27.555,17.68.747l7.854,9.907Z" transform="translate(76.29 321.733)"/><path class="h" d="M28.042,12.415,20.224,1.121,16.688,5.275,3.6,1.538a2.454,2.454,0,0,0-1.884.214,2.887,2.887,0,0,0-.779.634,3.559,3.559,0,0,0-.583.937A4.283,4.283,0,0,0,.04,4.456,4.755,4.755,0,0,0,.321,6.787,4.2,4.2,0,0,0,.889,7.807l9.629,12.634,5.148-1.853L12.846,23.5l3.68,4.828Z" transform="translate(58.699 338.365)"/><path class="h" d="M170.632,35.615,169.5,64.189a45.108,45.108,0,0,1-6.47,21.977,38.537,38.537,0,0,1-14.706,13.957,34.323,34.323,0,0,1-18.888,3.964,36.42,36.42,0,0,1-19.263-7.659l-.337-.26L109.5,95.9l-.338-.268-.338-.272s-.576-.216-1.434-.61a27.921,27.921,0,0,1-3.125-1.668A13.771,13.771,0,0,1,101.2,90.6a4.356,4.356,0,0,1-1.264-3.08,9.655,9.655,0,0,0-.219-2.889,5.257,5.257,0,0,0-.9-1.977,2.552,2.552,0,0,0-1.316-.946,1.936,1.936,0,0,0-1.475.2c-.489.27-2.455-2.227-5.119-6.113s-6-9.113-9.267-14.366C78.4,56.2,75.216,50.962,72.856,47.039s-3.9-6.52-3.9-6.52-3.2,1.753-8.142,4.472c-4.91,2.7-11.517,6.336-18.4,10.139C35.6,58.895,28.51,62.82,22.5,66.176c-5.958,3.326-10.879,6.1-13.477,7.633,0,0-.609-1.2-1.511-2.989s-2.092-4.168-3.26-6.535-2.307-4.716-3.113-6.461S-.138,54.94.036,55,3.9,52.208,9.364,47.88c5.512-4.364,12.864-10.258,20.273-16.224,7.49-6.03,15.038-12.134,20.748-16.757C56.142,10.238,60,7.107,60,7.107a17.919,17.919,0,0,1,1.773-1.733,22.388,22.388,0,0,1,4.862-3.225A16.052,16.052,0,0,1,82.952,3.207a5.585,5.585,0,0,1,.12.69,1.531,1.531,0,0,1,0,.365.306.306,0,0,1-.05.143.06.06,0,0,1-.032.025l43.984,41.792,6.434-13.467Z" transform="translate(83.423 272.655)"/><path class="d" d="M.07,80.344q.032.482.079.962t.108.958q.061.478.136.954t.165.949q.122.685.282,1.36T1.2,86.864q.2.663.429,1.312t.5,1.282a2.525,2.525,0,0,0,.05.392,11.032,11.032,0,0,0,.351,1.337c.2.63.5,1.458.953,2.525s1.055,2.374,1.86,3.961a9.351,9.351,0,0,1,1.2,3.315,1.526,1.526,0,0,1-.693,1.441c-.453.34-1.082.625-1.748,1.115a6.522,6.522,0,0,0-1.969,2.336,8.585,8.585,0,0,0-.972,2.383.892.892,0,0,0,.4.983c.317.218.793.388,1.356.7A6.662,6.662,0,0,1,4.8,111.464a7.119,7.119,0,0,1,.99,1.5,7.568,7.568,0,0,1,.6,1.7,7.724,7.724,0,0,1,.185,1.806,7.529,7.529,0,0,1-.251,1.815s2.168.068,5.534.13c3.381.063,7.981.121,12.817.1,4.867-.021,9.975-.122,14.3-.378,4.352-.257,7.906-.672,9.61-1.317a8.262,8.262,0,0,0,4.1-3.97,17.42,17.42,0,0,0,1.9-6.351,14.508,14.508,0,0,0-.54-6.178,4.942,4.942,0,0,0-3.2-3.445c-1.53-.411-2.178-.807-2.235-1.225s.478-.859,1.317-1.36,1.984-1.062,3.146-1.718a15.848,15.848,0,0,0,3.25-2.3,3.231,3.231,0,0,0,.964-2.98,7.763,7.763,0,0,0-1.418-3.092,18.174,18.174,0,0,0-2.093-2.419c-.621-.608-1.073-.976-1.073-.976a8.552,8.552,0,0,0,.461-1.159,30.1,30.1,0,0,0,1-3.955,67.757,67.757,0,0,0,.952-7.467c.245-3.154.385-7.012.322-11.689q-.013-.645-.047-1.289t-.089-1.286q-.055-.642-.131-1.281T55,51.41q-.186-1.2-.419-2.386t-.511-2.36q-.278-1.173-.6-2.332t-.693-2.3q-.508-1.579-1.063-3.137t-1.156-3.09q-.6-1.532-1.248-3.04t-1.338-2.987q-.371-.805-.745-1.59t-.747-1.544q-.373-.759-.743-1.492T45,23.721l-.113-.216-.112-.214-.112-.212-.113-.211c-.46-.871-.91-1.7-1.343-2.486s-.849-1.521-1.243-2.206-.763-1.317-1.1-1.891-.653-1.09-.929-1.542c-.213-.351-.4-.663-.573-.935s-.312-.5-.429-.688-.208-.329-.27-.425l-.094-.145-6.1-11.356L12.445,12.451l1.123,16.812-3.4,12.786L8.6,47.917,7.4,52.435,5.542,59.418a.216.216,0,0,1,.07.018.2.2,0,0,1,.108.11.433.433,0,0,1,0,.285,2.086,2.086,0,0,1-.27.543,31.58,31.58,0,0,0-1.9,3.24,32.533,32.533,0,0,0-1.512,3.456A33.317,33.317,0,0,0,.922,70.7a33.9,33.9,0,0,0-.7,3.77q-.086.73-.139,1.464T.011,77.4q-.019.735,0,1.471t.063,1.47Z" transform="translate(209.979 191.925)"/><path class="h" d="M15.639,85.307l.338-.125L60.5,68.758,43.771,6.913a8.747,8.747,0,0,0-.674-1.74,7.979,7.979,0,0,0-.992-1.486,7.252,7.252,0,0,0-1.264-1.179,6.688,6.688,0,0,0-1.491-.821,6.4,6.4,0,0,0-3.282-.376,6.785,6.785,0,0,0-1.622.45,7.383,7.383,0,0,0-1.525.862L5.219,22.882a11.943,11.943,0,0,0-2.833,2.961,13.753,13.753,0,0,0-1.774,3.77A14.664,14.664,0,0,0,0,33.823a14.216,14.216,0,0,0,.661,4.284Z" transform="translate(140.367 188.435)"/><path class="d" d="M15.2,85.179,60.057,68.75,43.334,6.867a8.77,8.77,0,0,0-.674-1.742,8.01,8.01,0,0,0-.991-1.489,7.281,7.281,0,0,0-1.264-1.183,6.712,6.712,0,0,0-1.491-.825,6.406,6.406,0,0,0-3.282-.385,6.773,6.773,0,0,0-1.622.446,7.358,7.358,0,0,0-1.525.858L3.495,20.62A7.557,7.557,0,0,0,1.078,23.71,13.1,13.1,0,0,0,.067,27.935a22.3,22.3,0,0,0,.155,4.807,28.836,28.836,0,0,0,1.09,4.838Z" transform="translate(140.632 192.424)"/><path class="e" d="M19.13,83.34a7.916,7.916,0,0,0,1.593.822,7.444,7.444,0,0,0,1.687.422,7.258,7.258,0,0,0,1.727.014,7.376,7.376,0,0,0,1.71-.4l28.8-10.358a8.8,8.8,0,0,0,3.1-1.958,10.194,10.194,0,0,0,2.146-3.047,11.337,11.337,0,0,0,1-3.736,11.552,11.552,0,0,0-.342-4.019L45.849,6.731a8.853,8.853,0,0,0-.576-1.548,8.207,8.207,0,0,0-.829-1.361,7.547,7.547,0,0,0-1.052-1.137,6.984,6.984,0,0,0-1.247-.875,6.6,6.6,0,0,0-1.381-.566,6.442,6.442,0,0,0-1.446-.235,6.52,6.52,0,0,0-1.466.1,6.832,6.832,0,0,0-1.443.431L7.322,13.805a10.443,10.443,0,0,0-1.957,1.089,11.454,11.454,0,0,0-1.724,1.5A12.543,12.543,0,0,0,2.2,18.248a13.542,13.542,0,0,0-1.12,2.162,14.307,14.307,0,0,0-.737,2.366,14.667,14.667,0,0,0-.23,4.92A14.065,14.065,0,0,0,.622,30.1l14.756,48A10.582,10.582,0,0,0,16,79.691a9.973,9.973,0,0,0,.847,1.42A9.272,9.272,0,0,0,17.9,82.338a8.572,8.572,0,0,0,1.232,1Z" transform="translate(141.069 198.709)"/><path class="f" d="M21.537,1.786a19.252,19.252,0,0,1,8.555,1.231,19.984,19.984,0,0,1,7.06,4.7,22.56,22.56,0,0,1,4.8,7.463,25.649,25.649,0,0,1,1.767,9.471,27.462,27.462,0,0,1-1.767,9.7,26.746,26.746,0,0,1-4.8,8.079,23.939,23.939,0,0,1-7.06,5.606,20.762,20.762,0,0,1-8.555,2.329,19.218,19.218,0,0,1-8.458-1.494,20.1,20.1,0,0,1-6.836-4.816A22.7,22.7,0,0,1,1.67,36.676,25.7,25.7,0,0,1,0,27.456a27.462,27.462,0,0,1,1.67-9.435,26.836,26.836,0,0,1,4.573-7.963,24.143,24.143,0,0,1,6.836-5.693A20.947,20.947,0,0,1,21.537,1.786Z" transform="translate(202.005 143.857)"/><path class="h" d="M104.571,66.146a23.77,23.77,0,0,1-1.92,3.309,23.233,23.233,0,0,1-2.388,2.909,22.45,22.45,0,0,1-2.794,2.449,21.544,21.544,0,0,1-3.138,1.929q-.656.345-1.328.647t-1.356.56q-.684.258-1.38.472t-1.4.383q-.2-.834-.457-1.645t-.574-1.595q-.315-.784-.687-1.538t-.8-1.473q.142.826.213,1.663t.071,1.68q0,.842-.071,1.686t-.213,1.681a19.575,19.575,0,0,1-2.136.154,19.266,19.266,0,0,1-2.12-.08,19,19,0,0,1-4.126-.853,16.489,16.489,0,0,1-3.752-1.769,16.976,16.976,0,0,1-3.184-2.622,17.816,17.816,0,0,1-2.506-3.35,18.858,18.858,0,0,1-1.719-3.958,21.665,21.665,0,0,1-.75-4.995,41.964,41.964,0,0,1,.152-5.151c.142-1.735.346-3.482.525-5.228s.331-3.491.37-5.219a23.455,23.455,0,0,0-.479-5.263,18.913,18.913,0,0,0-1.683-4.864,11.1,11.1,0,0,0-2.89-3.636,7.262,7.262,0,0,0-4.094-1.589,18.6,18.6,0,0,0-2.712-.042,3.306,3.306,0,0,0-1.579.495,6.414,6.414,0,0,0-1.327,1.281c-.5.586-1.1,1.344-1.945,2.315,1.186,1.359,1.353,4.026.839,7.248A46.7,46.7,0,0,1,48,52.693a44.7,44.7,0,0,1-5.262,9.33c-1.861,2.407-3.72,3.875-5.246,3.671a8.51,8.51,0,0,1-2.4-.715,14.191,14.191,0,0,1-1.961-1.112c-.572-.38-1.057-.741-1.442-1s-.668-.411-.838-.376a15.881,15.881,0,0,0-.5,7.6c.36,2.621,1.079,5.272,1.649,7.775a21.284,21.284,0,0,1,.75,6.883,6.047,6.047,0,0,1-3.2,4.872l.612-.919a9.8,9.8,0,0,0,.568-6.806,48.245,48.245,0,0,0-2.635-7.691,48.023,48.023,0,0,1-2.626-7.664,9.843,9.843,0,0,1,.564-6.793c.3-.568.6-1.16.875-1.767a14.563,14.563,0,0,0,.7-1.852,8.091,8.091,0,0,0,.34-1.877,5.281,5.281,0,0,0-.216-1.839,2.713,2.713,0,0,0-.976-1.366,3.261,3.261,0,0,0-1.514-.619,2.671,2.671,0,0,0-1.52.213,1.929,1.929,0,0,0-1,1.128,8.831,8.831,0,0,0,.1-3.693,9.5,9.5,0,0,0-1.3-3.353,8.118,8.118,0,0,0-2.364-2.464,6.068,6.068,0,0,0-3.1-1.035,9.932,9.932,0,0,0-2.314.118,5.408,5.408,0,0,0-1.507.532c-.453.233-.9.515-1.469.826a16.244,16.244,0,0,1-2.194,1q-.179-.669-.4-1.319t-.475-1.279q-.257-.629-.551-1.235t-.624-1.187q.112.681.174,1.372t.076,1.388q.014.7-.022,1.4t-.12,1.4a5.552,5.552,0,0,1-1.009.108,5.355,5.355,0,0,1-2.856-.776,5.277,5.277,0,0,1-1.96-2.2,8.3,8.3,0,0,1-.793-3.091,11.422,11.422,0,0,1,.288-3.414A10.858,10.858,0,0,1,1.6,31.693a14.022,14.022,0,0,1,2.042-2.567,17.683,17.683,0,0,1,2.485-2.046A26.052,26.052,0,0,1,8.9,25.435c.953-.495,1.925-.942,2.89-1.361.009-2.294,1.391-4.4,3.527-6.148a22.711,22.711,0,0,1,8.091-4,21.835,21.835,0,0,1,8.953-.745c2.709.423,4.912,1.583,5.958,3.665a11.315,11.315,0,0,1,1.491-4.913,13.711,13.711,0,0,1,3.342-3.882A14.5,14.5,0,0,1,47.62,5.6a11.813,11.813,0,0,1,4.862-.6,13.957,13.957,0,0,1,4.56,1.269,17.586,17.586,0,0,1,4.015,2.635,23.781,23.781,0,0,1,3.4,3.659A30.159,30.159,0,0,1,67.181,16.9a47.873,47.873,0,0,1,2.1,4.7c.626,1.611,1.191,3.258,1.729,4.922s1.051,3.345,1.573,5.022,1.057,3.351,1.637,5,1.225,3.3,1.951,4.9a39.9,39.9,0,0,0,2.45,4.619,27.561,27.561,0,0,0,3.071,4.08,20.59,20.59,0,0,0,3.818,3.28,15.592,15.592,0,0,0,4.662,2.053,15.987,15.987,0,0,0,5.122.476,14.159,14.159,0,0,0,4.978-1.266,12.579,12.579,0,0,0,4.214-3.171,15.9,15.9,0,0,1,1.263,3.5,16.741,16.741,0,0,1,.436,3.715,17.333,17.333,0,0,1-.393,3.763,17.534,17.534,0,0,1-1.222,3.649Z" transform="translate(196.74 124.741)"/><path class="e" d="M132.611,19.884q-.182-.161-.371-.311t-.386-.289q-.2-.139-.4-.266t-.412-.242c-2.236-1.255-5.639-3.011-9.809-4.933-4.147-1.911-9.043-3.983-14.3-5.886A134.653,134.653,0,0,0,90.623,3.112,71.951,71.951,0,0,0,74.6,1.184c-9.659.083-19.837,3.047-29.438,7.894A98.88,98.88,0,0,0,19.4,28.014C12.122,35.467,6.346,43.84,3.053,52.27c-3.278,8.391-4.119,16.9-1.521,24.7C3.515,82.93,7.483,88.432,12.8,93.226a69.763,69.763,0,0,0,19.6,12.108,87.046,87.046,0,0,0,24.358,6.261A71.1,71.1,0,0,0,81.916,110a65.163,65.163,0,0,0,29.136-16.985,91.711,91.711,0,0,0,18.906-27.335c4.461-9.786,6.972-19.6,7.442-27.8S136.292,23.134,132.611,19.884Z" transform="translate(144.254 287.222)"/><path class="i" d="M237.668,165.246c4.375-.145,8.646-4.811,12.053-12.41,3.42-7.629,5.963-18.2,6.858-30.062a120.247,120.247,0,0,0-3.035-37.7c-3.16-12.646-8.7-24.788-17.311-34.727a68.468,68.468,0,0,0-9.335-8.933,75.807,75.807,0,0,0-10.478-6.909,111.448,111.448,0,0,0-11.752-5.54c-4.133-1.686-8.506-3.255-13.143-4.812A361.75,361.75,0,0,0,120.251,7.723,289.242,289.242,0,0,0,66.4,6.01a208.454,208.454,0,0,0-35.852,5.279c-8.8,2.168-14.538,4.432-16.725,5.772s-4.754,7.849-7.089,17.07A237.221,237.221,0,0,0,1.11,67.362C-.1,79.495-.447,91.921.711,102.254c1.16,10.35,3.831,18.643,8.672,22.481a50.407,50.407,0,0,0,9.938,5.979,63.986,63.986,0,0,0,12.12,4.217,45.474,45.474,0,0,0,12.277,1.32A21.584,21.584,0,0,0,54,133.494c4.2-2.554,5.589-6.773,5.5-11.977s-1.647-11.37-3.339-17.835-3.5-13.2-4.117-19.605-.025-12.493,3.1-17.667c3.562-5.9,10.976-10.427,20.778-13.483,9.925-3.094,22.36-4.7,35.774-4.644a173.81,173.81,0,0,1,42.372,5.457c14.288,3.709,27.887,9.361,38.938,17.109,11.952,8.379,14.778,18.921,13.724,29.839s-5.965,22.087-9.39,31.952c-3.412,9.825-5.36,18.377-.578,24.242C201.576,162.78,213.269,166.056,237.668,165.246Z" transform="translate(235.833 353.674)"/><path class="j" d="M17.179,51.769,77.912,56.2A137.215,137.215,0,0,0,88.568,46.1a52.943,52.943,0,0,0,7.594-10.047,20.883,20.883,0,0,0,2.948-9.839,15.243,15.243,0,0,0-3.24-9.445,12.746,12.746,0,0,0-1.037-5.023,13.587,13.587,0,0,0-2.821-4.184,13.958,13.958,0,0,0-4.167-2.909,13.638,13.638,0,0,0-5.075-1.211L12.688.527a11.419,11.419,0,0,0-4.635.76A11.181,11.181,0,0,0,4.287,3.721,11.4,11.4,0,0,0,1.758,7.449,11.974,11.974,0,0,0,.832,12.1a28.462,28.462,0,0,0-.707,9.5A33.641,33.641,0,0,0,2.61,31.348,50.709,50.709,0,0,0,8.284,41.382,84.291,84.291,0,0,0,17.179,51.769Z" transform="translate(346.971 331.985)"/><path class="j" d="M1.891,103.942a2.7,2.7,0,0,0,.84-.065,2.644,2.644,0,0,0,1.825-1.551,2.729,2.729,0,0,0,.2-.822,2.813,2.813,0,0,0-.053-.835A2.881,2.881,0,0,0,3.885,99.2L3.7,98.436l.019-.045.019-.045.019-.045.019-.045A7.161,7.161,0,0,1,8.46,94.149a7.334,7.334,0,0,1,2.177-.261,7.537,7.537,0,0,1,2.181.391,7.719,7.719,0,0,1,1.955.987A7.8,7.8,0,0,1,17.527,98.7c.567,1.382,1.174,2.766,1.776,4.156s1.2,2.789,1.75,4.2,1.051,2.824,1.46,4.252a28.313,28.313,0,0,1,.9,4.325q.118.965.153,1.931t-.015,1.927q-.049.961-.182,1.912t-.349,1.885a85.544,85.544,0,0,0,3.544-8.781,86.758,86.758,0,0,0,2.567-9.151A87.836,87.836,0,0,0,30.7,95.926a88.688,88.688,0,0,0,.534-9.6q0-1.212-.033-2.424t-.1-2.423q-.068-1.211-.17-2.42t-.238-2.416q-.112-.989-.246-1.974t-.29-1.967q-.156-.982-.333-1.96t-.377-1.953A90.678,90.678,0,0,0,26.658,58.4a90.376,90.376,0,0,0-3.964-9.915,89.685,89.685,0,0,0-5.08-9.328,88.684,88.684,0,0,0-6.128-8.628,23.3,23.3,0,0,1-5.725-4.307A23.226,23.226,0,0,1,1.632,20.4q-.292-.58-.541-1.18T.638,18.007q-.2-.616-.364-1.247T0,15.486c.119.013.291-.436.476-1.125s.383-1.617.556-2.561.319-1.9.4-2.654a3.491,3.491,0,0,0,.006-1.4,4.023,4.023,0,0,1,.581-.7c.216-.212.45-.408.686-.6s.474-.39.7-.6a4.656,4.656,0,0,0,.617-.687A8.754,8.754,0,0,1,6.938,2.449a4.69,4.69,0,0,1,3.091-.53,5.476,5.476,0,0,1,2.91,1.673,11.745,11.745,0,0,1,2.37,3.9,9.374,9.374,0,0,1,3.221,2.374,5.755,5.755,0,0,1,1.321,2.94,7.1,7.1,0,0,1-.394,3.3,12.87,12.87,0,0,1-1.911,3.453,12,12,0,0,0-1.353,2.357c-.368.828-.673,1.69-.969,2.557s-.584,1.74-.918,2.592a15.187,15.187,0,0,1-1.2,2.459l.15.187.151.186.151.186.15.187q1.36,1.734,2.635,3.537t2.464,3.672Q20,39.35,21.1,41.281T23.2,45.2a37.786,37.786,0,0,1,.919-13.319,38.161,38.161,0,0,1,1.353-4.293,28.137,28.137,0,0,1,1.955-3.811c.747-1.232,1.577-2.43,2.452-3.608s1.8-2.338,2.728-3.491,1.87-2.3,2.779-3.458a8.179,8.179,0,0,1,3.948-2.772A8.3,8.3,0,0,1,43.83,10.3a7.792,7.792,0,0,1,3.834,2.2,7.342,7.342,0,0,1,1.944,4.278l.006.051.006.051.006.051.005.051q-.206.118-.41.24t-.405.247q-.2.125-.4.253t-.4.26a4.022,4.022,0,0,0-.878.8,3.945,3.945,0,0,0-.588,1,3.855,3.855,0,0,0-.269,1.116,3.763,3.763,0,0,0,1.23,3.126,3.859,3.859,0,0,0,.958.634,3.948,3.948,0,0,0,1.137.332l.08.011q-.073.729-.175,1.455T49.282,27.9q-.129.722-.287,1.438t-.342,1.427a27.45,27.45,0,0,1,.914,11.419,13.989,13.989,0,0,1-3.706,7.63A17.18,17.18,0,0,1,38.578,54.1a34.555,34.555,0,0,1-9.8,1.441l-.235.12-.233.119-.233.117-.235.115q1.016,2.861,1.843,5.781t1.463,5.891q.635,2.97,1.077,5.978t.685,6.042q.138,1.789.2,3.581t.057,3.583q-.008,1.791-.089,3.579t-.235,3.57l.024-.168a22.771,22.771,0,0,1,5.212-10.6,23.057,23.057,0,0,1,2.9-2.784,30.251,30.251,0,0,1,5.136-3.214c1.833-.929,3.76-1.743,5.707-2.527s3.923-1.542,5.84-2.354a48.293,48.293,0,0,0,5.525-2.7,4.612,4.612,0,0,1,1.2-.518,4.726,4.726,0,0,1,1.281-.166,4.764,4.764,0,0,1,2.491.725,4.669,4.669,0,0,1,1.006.847,4.555,4.555,0,0,1,.71,1.064,4.438,4.438,0,0,1,.38,1.21,4.35,4.35,0,0,1,.015,1.285l-.007.045-.007.045-.007.045-.007.045q-.392.149-.778.31t-.767.333q-.38.172-.755.356t-.742.379q-.21.112-.419.228t-.414.235q-.206.119-.409.242t-.4.249a3.889,3.889,0,0,0-.9.782,3.782,3.782,0,0,0-.795,3.281,3.9,3.9,0,0,0,.438,1.107,4.033,4.033,0,0,0,.738.918,4.134,4.134,0,0,0,.978.675,4.179,4.179,0,0,0,1.16.376l.082.014.043.007.041.007.042.007.043.007q-.667,1.532-1.466,3T64.245,89.65q-.923,1.383-1.966,2.682t-2.2,2.5a20.056,20.056,0,0,1-3.961,9.176,13.743,13.743,0,0,1-6.78,4.463,21.576,21.576,0,0,1-8.707.573,42.418,42.418,0,0,1-9.759-2.478h-.008q-.548,2.344-1.219,4.649t-1.46,4.561q-.789,2.256-1.7,4.462t-1.927,4.352l-22.126-.976q-.029-.093-.057-.187t-.055-.189l-.054-.189-.053-.187q.758.081,1.517.116T5.255,123q.759-.012,1.516-.072t1.509-.166L7.058,121.2l-1.221-1.564-1.219-1.561L3.4,116.521l-.027-.03-.026-.03-.025-.031L3.3,116.4l-.618-.793-.619-.791-.618-.79-.616-.791h0q-.016-1.178.042-2.352t.192-2.337q.133-1.163.341-2.315t.489-2.287Z" transform="translate(372.841 213.746)"/><path class="j" d="M41.02,50.339a4.741,4.741,0,0,1-.718,1.37,4.442,4.442,0,0,1-1.074,1.013,4.328,4.328,0,0,1-1.336.594,4.443,4.443,0,0,1-1.5.116L16.848,51.47a4.535,4.535,0,0,1-1.465-.4,4.98,4.98,0,0,1-1.272-.843,5.343,5.343,0,0,1-.989-1.209,5.5,5.5,0,0,1-.618-1.493L9.793,16.209a6.427,6.427,0,0,1-2.268.531,6.517,6.517,0,0,1-.785-.01,6.742,6.742,0,0,1-2.684-.8A7.473,7.473,0,0,1,1.9,14.167,8.061,8.061,0,0,1,.476,11.688,8.161,8.161,0,0,1,0,8.749,7.738,7.738,0,0,1,.611,5.89,7.067,7.067,0,0,1,2.143,3.625,6.5,6.5,0,0,1,4.377,2.177a6.337,6.337,0,0,1,2.713-.4q.157.006.314.021t.314.039q.156.024.312.057t.31.075a4.558,4.558,0,0,1,.743-.671A4.4,4.4,0,0,1,9.936.812,4.347,4.347,0,0,1,11.858.473L41.925,2.506q.1.008.19.02t.19.028q.095.016.189.037t.188.045a4.785,4.785,0,0,1,.984.351,4.994,4.994,0,0,1,.89.554,5.2,5.2,0,0,1,.767.736,5.352,5.352,0,0,1,.615.895,5.43,5.43,0,0,1,.64,2.063,5.316,5.316,0,0,1,0,1.072,5.148,5.148,0,0,1-.219,1.05ZM9.239,14.068l-1.921-7.5a5.529,5.529,0,0,1-.124-.654,5.472,5.472,0,0,1-.044-.66A5.4,5.4,0,0,1,7.186,4.6,5.273,5.273,0,0,1,7.3,3.95a.363.363,0,0,1-.068-.01l-.066-.019c-.022-.007-.044-.014-.066-.019a.352.352,0,0,0-.068-.01,4.535,4.535,0,0,0-1.94.29A4.652,4.652,0,0,0,3.5,5.218,5.056,5.056,0,0,0,2.4,6.841,5.536,5.536,0,0,0,1.967,8.89a5.837,5.837,0,0,0,.343,2.1,5.764,5.764,0,0,0,1.022,1.773,5.343,5.343,0,0,0,1.548,1.26A4.819,4.819,0,0,0,6.8,14.59a4.339,4.339,0,0,0,.635.006,4.276,4.276,0,0,0,1.8-.529Z" transform="translate(262.537 325.929)"/><path class="k" d="M32.156,2.217a4.433,4.433,0,0,1-1.663,2.631,11.212,11.212,0,0,1-3.671,1.906,23.059,23.059,0,0,1-5.169,1.006,33.359,33.359,0,0,1-6.16-.059,34.121,34.121,0,0,1-5.613-.992A25.774,25.774,0,0,1,5.2,4.99,14.578,14.578,0,0,1,1.8,2.751,6.235,6.235,0,0,1,0,.192Q.162.147.327.116T.66.068Q.827.05,1,.047t.338.008L31.4,2.087q.1.008.19.02t.19.028q.095.016.189.037t.188.045Z" transform="translate(273.061 326.348)"/><path class="l" d="M575.089,86.477.627,2.138a.535.535,0,0,1-.244-.107.838.838,0,0,1-.2-.224A1.179,1.179,0,0,1,.049,1.5,1.337,1.337,0,0,1,0,1.14,1.184,1.184,0,0,1,.049.794.844.844,0,0,1,.184.526a.544.544,0,0,1,.2-.165A.426.426,0,0,1,.627.325L575.089,83.838a1.489,1.489,0,0,1,.518.179,1.638,1.638,0,0,1,.423.345,1.611,1.611,0,0,1,.285.461,1.42,1.42,0,0,1,.1.529,1.2,1.2,0,0,1-.1.5,1.077,1.077,0,0,1-.285.378,1.1,1.1,0,0,1-.423.221,1.263,1.263,0,0,1-.518.028Z" transform="translate(0 449.051)"/><path class="f" d="M5.839.322A5.186,5.186,0,0,1,8.07.9,5.886,5.886,0,0,1,9.879,2.36a6.875,6.875,0,0,1,1.208,2.134,7.613,7.613,0,0,1,.428,2.6q0,.135-.011.269t-.02.268q-.013.134-.03.267t-.04.266L29.4,20.208l-2.2,12.63L4.282,13.215a5.472,5.472,0,0,1-1.751-.928A6.245,6.245,0,0,1,1.172,10.8,7.081,7.081,0,0,1,.3,8.885,7.645,7.645,0,0,1,0,6.692,7.3,7.3,0,0,1,.479,4.2a6.626,6.626,0,0,1,1.227-2.03A5.67,5.67,0,0,1,3.5.8,4.964,4.964,0,0,1,5.685.318h.154Z" transform="translate(165.251 245.745)"/><path class="d" d="M9.329,59.6c.12-.183.223-.339.312-.47s.163-.235.226-.314a.791.791,0,0,1,.156-.16c.042-.028.076-.031.1-.01.07.049.106.248.152.59s.1.827.208,1.448a20.687,20.687,0,0,0,.527,2.265,25.278,25.278,0,0,0,1.111,3.042c.7,1.6,3.066,3.439,6.232,5.3a106.836,106.836,0,0,0,11.1,5.471C33.4,78.479,37.283,80,40.182,81.091s4.827,1.763,4.827,1.763l3.79-7.639L65.7,41.177l5.915-27.655q.078-.363.136-.73t.1-.736q.038-.369.055-.74t.014-.742Q69.933,9.1,67.9,7.733t-4.116-2.62q-2.078-1.253-4.2-2.395T55.3.551a11.569,11.569,0,0,0-1.616,1.29A12.186,12.186,0,0,0,52.3,3.4a12.754,12.754,0,0,0-1.112,1.8A13.194,13.194,0,0,0,50.374,7.2L38.934,43.1,34.418,57.281s-.5-.4-1.285-.982-1.867-1.343-3.034-2.068a21.74,21.74,0,0,0-3.556-1.842,4.214,4.214,0,0,0-2.87-.321,3.39,3.39,0,0,1-1.733.334,1.106,1.106,0,0,1-.913-.789,4.218,4.218,0,0,1-.037-1.987,19.491,19.491,0,0,1,.9-3.263,6.761,6.761,0,0,0,.585-2.181c-.051-.225-.325-.031-.758.339a20.642,20.642,0,0,1-1.707,1.386,5.089,5.089,0,0,1-2.262.962,10.459,10.459,0,0,1-1.379.114c-.174-.018-.121-.1-.015-.258a1.623,1.623,0,0,0,.3-.739,1.955,1.955,0,0,0-.425-1.326,5.248,5.248,0,0,0-2.4-1.462,28.828,28.828,0,0,0-3.8-1.062c-1.308-.285-2.566-.5-3.5-.646S5,41.272,5,41.272l-.205.491-3.729,8.8L0,53.08s.246.307.63.783.907,1.122,1.46,1.8,1.137,1.386,1.642,1.987.932,1.1,1.171,1.342.439.431.595.582a1.806,1.806,0,0,1,.336.4.637.637,0,0,1,.068.419,2.811,2.811,0,0,1-.211.654.44.44,0,0,0,.137.6,1.212,1.212,0,0,0,.88.045,3.62,3.62,0,0,0,1.281-.638A5.759,5.759,0,0,0,9.329,59.6Z" transform="translate(176.348 215.144)"/></g></svg>