<svg xmlns="http://www.w3.org/2000/svg" width="309.56" height="568.45" viewBox="0 0 309.56 568.45"><defs><style>.a{fill:#3f3d56;}.b{fill:#ccc;}.c{fill:#ef5d58;}.d{fill:#a0616a;}.e{fill:#2f2e41;}</style></defs><g transform="translate(0 0)"><path class="a" d="M4.258,28.342A20.893,20.893,0,0,1,12.666,2.435a1.21,1.21,0,0,0,.6-.834,1.39,1.39,0,0,0-.181-.93,1.346,1.346,0,0,0-.715-.606A1.173,1.173,0,0,0,11.359.2,23.215,23.215,0,0,0,2.024,29.644a1.038,1.038,0,0,0,.716.653,1.231,1.231,0,0,0,.89-.164,1.544,1.544,0,0,0,.646-.734,1.339,1.339,0,0,0-.016-1.057Z" transform="translate(226.161 360.188)"/><path class="a" d="M6.673,51.027A18.346,18.346,0,0,1,4.8,46.2a24.4,24.4,0,0,1-.617-5.1,38.349,38.349,0,0,1,.273-5.2c.2-1.728.486-3.441.8-5.11.328-1.742.681-3.491,1-5.245s.613-3.514.817-5.277a40.646,40.646,0,0,0,.293-5.3A27.9,27.9,0,0,0,6.8,9.652a19.378,19.378,0,0,0-.676-2.53A19.392,19.392,0,0,0,5.12,4.716,19.4,19.4,0,0,0,3.8,2.467,19.409,19.409,0,0,0,2.184.406,1.142,1.142,0,0,0,1.262,0a1.318,1.318,0,0,0-.84.4,1.42,1.42,0,0,0-.417.858,1.239,1.239,0,0,0,.348.974A15.125,15.125,0,0,1,2.96,6.159a19.065,19.065,0,0,1,1.4,4.458A26.775,26.775,0,0,1,4.8,15.333a37.57,37.57,0,0,1-.264,4.7c-.21,1.808-.516,3.6-.853,5.4s-.7,3.581-1.035,5.374-.628,3.588-.822,5.4a37.018,37.018,0,0,0-.214,5.463A23.424,23.424,0,0,0,4.438,52.329a1.294,1.294,0,0,0,2.235-1.3Z" transform="translate(224.487 340.979)"/><path class="b" d="M47.873,38.815,3.878,38.741A3.883,3.883,0,0,1,0,34.861V21.967A12.5,12.5,0,0,1,12.515,9.481l6.45.007A1.291,1.291,0,0,0,20.258,8.2V2.17A2.154,2.154,0,0,1,22.415.019l6.9.006A2.157,2.157,0,0,1,31.473,2.18v6.03A1.3,1.3,0,0,0,32.767,9.5l6.456.007A12.537,12.537,0,0,1,51.759,22.034V34.944a3.877,3.877,0,0,1-3.886,3.871Z" transform="translate(202.03 372.94)"/><path class="c" d="M8.661,11.475A17.9,17.9,0,0,1,8.981,15a12.443,12.443,0,0,1-.375,3,6.065,6.065,0,0,1-.988,2.158A2.527,2.527,0,0,1,6.1,21.159a2.531,2.531,0,0,1-1.781-.388,6.075,6.075,0,0,1-1.706-1.651,12.456,12.456,0,0,1-1.441-2.654,17.909,17.909,0,0,1-.986-3.4,15.157,15.157,0,0,1-.09-4.112A34.565,34.565,0,0,1,.8,4.7c.3-1.327.625-2.5.878-3.342S2.107,0,2.107,0,2.459.412,3,1.1,4.275,2.77,5.037,3.9a34.6,34.6,0,0,1,2.21,3.714A15.164,15.164,0,0,1,8.661,11.475Z" transform="translate(219.91 322.764)"/><path class="c" d="M9.858,12.648A17.931,17.931,0,0,1,7.514,15.3a12.476,12.476,0,0,1-2.439,1.787,6.088,6.088,0,0,1-2.25.766,2.534,2.534,0,0,1-1.778-.408A2.525,2.525,0,0,1,.1,15.886a6.061,6.061,0,0,1,.028-2.373,12.443,12.443,0,0,1,.94-2.87,17.914,17.914,0,0,1,1.794-3.05A15.191,15.191,0,0,1,5.8,4.7a34.673,34.673,0,0,1,3.587-2.42c1.171-.7,2.251-1.266,3.037-1.661S13.7,0,13.7,0s-.057.538-.188,1.407-.336,2.071-.633,3.4A34.567,34.567,0,0,1,11.7,8.966,15.164,15.164,0,0,1,9.858,12.648Z" transform="translate(236.486 344.434)"/><path class="a" d="M4.243,28.346a20.838,20.838,0,0,1-.595-14.479A21.027,21.027,0,0,1,12.621,2.427a1.218,1.218,0,0,0,.594-.837,1.384,1.384,0,0,0-.18-.927,1.329,1.329,0,0,0-.713-.6,1.17,1.17,0,0,0-1,.145A23.385,23.385,0,0,0,.03,21.4,23.082,23.082,0,0,0,2.017,29.66a1.025,1.025,0,0,0,.713.647,1.229,1.229,0,0,0,.886-.17A1.556,1.556,0,0,0,4.26,29.4a1.338,1.338,0,0,0-.016-1.055Z" transform="translate(145.222 50.568)"/><path class="a" d="M6.649,50.941a18.209,18.209,0,0,1-1.864-4.809,24.345,24.345,0,0,1-.614-5.09,38.39,38.39,0,0,1,.272-5.19c.2-1.726.484-3.438.8-5.107.327-1.741.678-3.49,1-5.243s.611-3.511.814-5.273a40.68,40.68,0,0,0,.292-5.292,27.846,27.846,0,0,0-.569-5.3A19.274,19.274,0,0,0,6.1,7.116a19.236,19.236,0,0,0-1-2.395A19.2,19.2,0,0,0,3.787,2.486,19.177,19.177,0,0,0,2.176.439a1.129,1.129,0,0,0-.918-.4,1.322,1.322,0,0,0-.837.4,1.429,1.429,0,0,0-.415.859,1.231,1.231,0,0,0,.347.969,14.962,14.962,0,0,1,2.6,3.9,18.946,18.946,0,0,1,1.4,4.441,26.718,26.718,0,0,1,.442,4.7,37.6,37.6,0,0,1-.263,4.692c-.209,1.806-.514,3.6-.85,5.394s-.7,3.58-1.031,5.371-.625,3.586-.819,5.391a37.047,37.047,0,0,0-.213,5.455,23.282,23.282,0,0,0,2.812,10.63,1.277,1.277,0,0,0,.785.561A1.3,1.3,0,0,0,6.65,50.941Z" transform="translate(143.554 31.438)"/><path class="b" d="M47.7,38.73l-43.84.223A3.844,3.844,0,0,1,0,35.105V22.234A12.558,12.558,0,0,1,12.471,9.686L18.9,9.649a1.3,1.3,0,0,0,1.289-1.3V2.335A2.164,2.164,0,0,1,22.336.173L29.213.132a2.136,2.136,0,0,1,2.149,2.137V8.288a1.282,1.282,0,0,0,1.29,1.282l6.433-.037A12.413,12.413,0,0,1,51.577,21.952V34.839A3.9,3.9,0,0,1,47.7,38.73Z" transform="translate(121.176 63.236)"/><path class="c" d="M8.631,11.457a17.869,17.869,0,0,1,.319,3.514,12.47,12.47,0,0,1-.374,2.993,6.1,6.1,0,0,1-.984,2.161,2.54,2.54,0,0,1-1.513,1.017A2.508,2.508,0,0,1,4.3,20.765a6,6,0,0,1-1.7-1.637,12.338,12.338,0,0,1-1.436-2.639,17.8,17.8,0,0,1-.982-3.383A15.149,15.149,0,0,1,.095,9,34.671,34.671,0,0,1,.8,4.742c.3-1.326.623-2.5.875-3.342S2.1.048,2.1.048s.35.407.891,1.094S4.26,2.8,5.019,3.917a34.231,34.231,0,0,1,2.2,3.693A15.059,15.059,0,0,1,8.631,11.457Z" transform="translate(138.993 13.274)"/><path class="c" d="M9.823,12.649a18.067,18.067,0,0,1-2.335,2.664,12.556,12.556,0,0,1-2.43,1.8,6.1,6.1,0,0,1-2.242.78,2.51,2.51,0,0,1-1.772-.4,2.5,2.5,0,0,1-.94-1.55,6.061,6.061,0,0,1,.028-2.369,12.511,12.511,0,0,1,.937-2.871A18.052,18.052,0,0,1,2.855,7.65,15.3,15.3,0,0,1,5.776,4.743,34.886,34.886,0,0,1,9.351,2.3c1.167-.7,2.243-1.278,3.027-1.679S13.654,0,13.654,0s-.057.537-.187,1.406-.335,2.069-.631,3.4a34.737,34.737,0,0,1-1.18,4.158A15.273,15.273,0,0,1,9.823,12.649Z" transform="translate(155.51 34.764)"/><path class="c" d="M0,.076,35.087,0V12.872L0,12.939Z" transform="translate(27.348 235.09)"/><path class="c" d="M0,.044,35.087,0V12.872L0,12.907Z" transform="translate(27.348 277.14)"/><path class="a" d="M277.551,511.383,14.524,510.373a14.531,14.531,0,0,1-10.266-4.312A14.618,14.618,0,0,1,0,495.748V16.7A14.661,14.661,0,0,1,14.524,2.022L277.551.107a14.554,14.554,0,0,1,14.7,14.555V496.778a14.632,14.632,0,0,1-14.7,14.605ZM14.524,3.737a12.813,12.813,0,0,0-4.987,1.05,12.973,12.973,0,0,0-7.829,11.9v479.07a12.885,12.885,0,0,0,12.816,12.9l263.026,1a12.892,12.892,0,0,0,12.971-12.887V14.674A12.86,12.86,0,0,0,277.551,1.831Z" transform="translate(0 0)"/><path class="a" d="M0,1.486,290.533,0V1.725L0,3.2Z" transform="translate(0.854 99.578)"/><path class="a" d="M0,.832,290.533,0V1.725L0,2.546Z" transform="translate(0.854 203.098)"/><path class="a" d="M0,.178,290.533,0V1.725L0,1.892Z" transform="translate(0.854 306.62)"/><path class="a" d="M0,0,290.533.476V2.2L0,1.714Z" transform="translate(0.854 409.664)"/><path class="a" d="M33.373,91.828l-29.1.016A4.283,4.283,0,0,1,0,87.559V4.384A4.293,4.293,0,0,1,4.276.086l29.1-.075a4.278,4.278,0,0,1,4.282,4.28V87.535a4.288,4.288,0,0,1-4.282,4.293ZM4.276,1.8a2.564,2.564,0,0,0-1.813.759A2.578,2.578,0,0,0,1.71,4.38V87.558a2.566,2.566,0,0,0,2.566,2.571l29.1-.018a2.576,2.576,0,0,0,2.569-2.576V4.3a2.564,2.564,0,0,0-2.569-2.568Z" transform="translate(26.493 217.065)"/><path class="c" d="M0,.077,35.17,0V12.887L0,12.954Z" transform="translate(81.284 234.973)"/><path class="c" d="M0,.044,35.17,0V12.887L0,12.922Z" transform="translate(81.284 277.072)"/><path class="a" d="M33.452,91.936l-29.166.017A4.29,4.29,0,0,1,0,87.663V4.39A4.3,4.3,0,0,1,4.286.086L33.452.011A4.284,4.284,0,0,1,37.744,4.3V87.638a4.3,4.3,0,0,1-4.292,4.3ZM4.286,1.8A2.583,2.583,0,0,0,1.714,4.385V87.662a2.572,2.572,0,0,0,2.572,2.574l29.166-.018a2.58,2.58,0,0,0,2.575-2.579V4.3a2.569,2.569,0,0,0-2.575-2.571Z" transform="translate(80.427 216.926)"/><path class="c" d="M0,.157,35.3,0V12.912L0,13.059Z" transform="translate(167.159 130.631)"/><path class="c" d="M0,.125,35.3,0V12.912L0,13.026Z" transform="translate(167.159 172.809)"/><path class="a" d="M33.577,92.119,4.3,92.2A4.288,4.288,0,0,1,0,87.914V4.484A4.327,4.327,0,0,1,4.3.163L33.577.021A4.282,4.282,0,0,1,37.886,4.3V87.8a4.323,4.323,0,0,1-4.308,4.316ZM4.3,1.883A2.6,2.6,0,0,0,1.721,4.476V87.909A2.573,2.573,0,0,0,4.3,90.482L33.577,90.4a2.592,2.592,0,0,0,2.585-2.59V4.312a2.571,2.571,0,0,0-2.585-2.57Z" transform="translate(166.299 112.547)"/><path class="c" d="M0,.157,35.386,0V12.927L0,13.074Z" transform="translate(221.426 130.389)"/><path class="c" d="M0,.125,35.386,0V12.927L0,13.042Z" transform="translate(221.426 172.617)"/><path class="a" d="M33.657,92.228l-29.345.083A4.294,4.294,0,0,1,0,88.018V4.49A4.315,4.315,0,0,1,1.264,1.44,4.328,4.328,0,0,1,4.312.163L33.657.021a4.289,4.289,0,0,1,4.319,4.288v83.6a4.308,4.308,0,0,1-1.266,3.049,4.328,4.328,0,0,1-3.052,1.272ZM4.312,1.885a2.6,2.6,0,0,0-2.587,2.6V88.013a2.579,2.579,0,0,0,2.587,2.576L33.657,90.5a2.6,2.6,0,0,0,2.591-2.593V4.317a2.576,2.576,0,0,0-2.591-2.573Z" transform="translate(220.564 112.283)"/><path class="c" d="M0,12.471,32.986,0l4.538,12.066L4.532,24.529Z" transform="translate(126.678 227.176)"/><path class="c" d="M0,12.446,33.007,0l4.541,12.074L4.535,24.513Z" transform="translate(141.486 266.599)"/><path class="a" d="M33.611,97.049a4.3,4.3,0,0,1-4.022-2.787l-29.315-78a4.309,4.309,0,0,1,2.509-5.539L30.13.371a4.283,4.283,0,0,1,5.537,2.5L65.028,80.922a4.308,4.308,0,0,1-2.515,5.543h0L35.126,96.771q-.182.069-.368.121t-.377.087q-.19.035-.383.053T33.611,97.049ZM31.644,1.81q-.116,0-.232.011t-.23.032q-.114.021-.226.053t-.221.073L3.387,12.329a2.584,2.584,0,0,0-1.505,3.324l29.317,78a2.576,2.576,0,0,0,3.322,1.505L61.906,84.854a2.583,2.583,0,0,0,1.509-3.326L34.057,3.478A2.576,2.576,0,0,0,31.644,1.81Z" transform="translate(120.77 210.83)"/><path class="c" d="M0,12.512,32.816,0l4.515,12.025L4.509,24.529Z" transform="translate(8.464 125.381)"/><path class="c" d="M0,12.488,32.837,0l4.518,12.032L4.511,24.512Z" transform="translate(23.195 164.67)"/><path class="a" d="M33.438,96.869a4.27,4.27,0,0,1-4-2.771L.273,16.362a4.292,4.292,0,0,1,.111-3.277,4.3,4.3,0,0,1,2.385-2.253L29.975.448a4.251,4.251,0,0,1,5.508,2.479L64.692,80.714a4.307,4.307,0,0,1-2.5,5.534h0L34.945,96.588q-.181.069-.366.121T34.2,96.8q-.189.035-.381.053t-.385.019ZM31.48,1.88q-.116,0-.231.012t-.229.032q-.113.021-.225.053t-.22.073L3.369,12.434a2.585,2.585,0,0,0-1.5,3.319L31.038,93.49a2.556,2.556,0,0,0,3.3,1.494L61.587,84.643a2.584,2.584,0,0,0,1.5-3.321L33.881,3.538a2.555,2.555,0,0,0-2.4-1.658Z" transform="translate(2.586 109.019)"/><path class="b" d="M308.388,3.281,1.156,1.72a1.511,1.511,0,0,1-.45-.07,1.248,1.248,0,0,1-.367-.186.9.9,0,0,1-.248-.274.659.659,0,0,1,0-.667A.891.891,0,0,1,.339.253,1.235,1.235,0,0,1,.706.071a1.5,1.5,0,0,1,.45-.065L308.388,1.555a1.539,1.539,0,0,1,.456.07,1.27,1.27,0,0,1,.372.187.911.911,0,0,1,.251.275.658.658,0,0,1,0,.672.9.9,0,0,1-.251.273,1.254,1.254,0,0,1-.372.183A1.535,1.535,0,0,1,308.388,3.281Z" transform="translate(0 565.164)"/></g><g transform="translate(85.966 205.196)"><g transform="translate(0 22.031)"><g transform="translate(58.383 302.53)"><path class="d" d="M8.452,23.21l-5.859-.078L0,0,8.647.109Z" transform="translate(10.31 0)"/><path class="e" d="M0,12.679A2.611,2.611,0,0,0,.2,13.7a2.653,2.653,0,0,0,1.381,1.414,2.615,2.615,0,0,0,1.018.221l11.646.156,2.039-4.123.749,4.158,4.4.062L20.316.762,18.786.653,12.549.194,10.536.049,10.5,4.241l-9.354,6.3A2.6,2.6,0,0,0,0,12.679Z" transform="translate(0 19.754)"/></g><g transform="translate(88.193 302.657)"><path class="d" d="M8.463,23.225,2.6,23.148,0,0,8.658.109Z" transform="translate(10.324)"/><path class="e" d="M0,12.687a2.611,2.611,0,0,0,.2,1.021A2.655,2.655,0,0,0,1.58,15.122a2.619,2.619,0,0,0,1.019.221L14.26,15.5,16.3,11.373l.75,4.161,4.4.062L20.342.762,18.811.653,12.565.194,10.55.049l-.035,4.194-9.366,6.3A2.6,2.6,0,0,0,0,12.687Z" transform="translate(0 19.767)"/></g><path class="e" d="M8.089.005,31.831.772,54.346,5.79a1.49,1.49,0,0,0-.235.547A3.774,3.774,0,0,0,54.158,8.1a10.279,10.279,0,0,0,1.455,3.175A29.513,29.513,0,0,0,59.6,16.05s.626,1.1,1.455,3a51.091,51.091,0,0,1,2.676,7.883A43.771,43.771,0,0,1,65.1,38.008a33.806,33.806,0,0,1-2.488,12.567l-3,68.033s.547,3,1.264,7.737,1.6,11.214,2.279,18.166a189.293,189.293,0,0,1,1.024,21.025c-.12,6.643-.827,12.5-2.5,16.309l-8.844.511L37.868,119.089,30.581,51.017,27.081,118s.837,2.877,1.96,7.476,2.533,10.924,3.678,17.817a141.715,141.715,0,0,1,2.093,21.236c.066,6.879-.682,13.173-2.8,17.727l-9.566-.6L6.091,117.933s-.437-4.592-1.077-11.7S3.531,89.506,2.72,79.448,1.128,58.9.613,50.042-.152,33.975.1,30.478a72.349,72.349,0,0,1,1.67-10.662c.8-3.512,1.764-6.884,2.7-9.819S6.31,4.564,6.981,2.8,8.089.006,8.089.006Z" transform="translate(46.073 138.753)"/><g transform="translate(83.325 31.028)"><path class="d" d="M4.563.208A6.082,6.082,0,0,0,.58,8.687a6.019,6.019,0,0,0,1.263,1.761,6.147,6.147,0,0,0,.832.674v.008L2.212,22.3l8.56,3.946.684-17.191-.06,0a6.152,6.152,0,0,0,.463-1.038,6.073,6.073,0,0,0-7.3-7.81Z" transform="translate(46.101)"/><path class="a" d="M2.875,23.77A9.665,9.665,0,0,1,.214,18.883,10.076,10.076,0,0,1,.293,14.4,9.675,9.675,0,0,1,2.7,10.035a10.03,10.03,0,0,1,4.74-2.763,9.75,9.75,0,0,1,5.7.274,9.9,9.9,0,0,1,2.6,1.406L42.6,29.126,47.386.013,57.669,3.306,55.215,41.22a7.722,7.722,0,0,1-.371,1.918,7.587,7.587,0,0,1-2.053,3.2,7.791,7.791,0,0,1-3.416,1.84,7.6,7.6,0,0,1-3.8-.042,7.742,7.742,0,0,1-1.807-.744L4.968,25.353Q4.676,25.187,4.4,25t-.539-.381q-.262-.2-.508-.412t-.476-.441Z" transform="translate(0 16.338)"/></g><g transform="translate(0 12.161)"><path class="d" d="M22.672,2.97a6.08,6.08,0,0,1-3.132,8.806,6.018,6.018,0,0,1-2.131.367,6.131,6.131,0,0,1-1.062-.1l-.006.006L8.826,20.3,0,17.112,11.58,4.434l.041.043a6.146,6.146,0,0,1,.4-1.06A6.055,6.055,0,0,1,22.672,2.97Z" transform="translate(22.665 0)"/><path class="a" d="M48.586,52.633,5.643,41.057a7.685,7.685,0,0,1-1.8-.738,7.545,7.545,0,0,1-2.715-2.632,7.753,7.753,0,0,1-1.123-3.7,7.576,7.576,0,0,1,.79-3.7A7.722,7.722,0,0,1,1.88,28.67L26.735.062l9.589,4.854L19.279,28.926l33.193,4.5a9.884,9.884,0,0,1,2.836.827,9.717,9.717,0,0,1,4.237,3.8,10,10,0,0,1,1.421,5.289,9.664,9.664,0,0,1-1.361,4.8,10.083,10.083,0,0,1-3.1,3.237,9.746,9.746,0,0,1-1.668.882,9.648,9.648,0,0,1-3.658.721q-.323,0-.648-.021t-.65-.064q-.325-.043-.651-.108t-.649-.152Z" transform="translate(0 11.808)"/></g><path class="a" d="M61.7,104.407l-60.189,2.7A5.879,5.879,0,0,1,.666,105a8.566,8.566,0,0,1-.084-2.558,14.766,14.766,0,0,1,.659-2.972A25.534,25.534,0,0,1,2.622,96.11,45.722,45.722,0,0,0,6.564,80.258a108.005,108.005,0,0,0-.175-18.812C5.827,55.017,4.853,48.6,3.74,42.686S1.377,31.374.262,26.984a8.35,8.35,0,0,1,1.217-6.826,8.188,8.188,0,0,1,5.949-3.514l5.67-.573L18.34.061,36.709.035l7.625,8.7L57.28,16.578c-.589,6.065-1.659,12.756-2.708,19.648S52.494,50.21,51.985,57.081a81.488,81.488,0,0,0,.537,19.527c1.033,6.006,3.088,11.369,6.665,15.666a15.66,15.66,0,0,1,1.925,2.876,11.923,11.923,0,0,1,1.07,2.985,10.932,10.932,0,0,1,.2,3.088,12.528,12.528,0,0,1-.681,3.185Z" transform="translate(48.244 44.4)"/><path class="d" d="M17.883.038a17.867,17.867,0,1,1-6.963,1.42A17.818,17.818,0,0,1,17.883.038Z" transform="translate(55.548 9.007)"/><path class="e" d="M42.3,12.456c.623-2.271-.607-4.457-2.885-6.344a27.011,27.011,0,0,0-9.168-4.55A32.571,32.571,0,0,0,19.627.088C16.381.252,13.7,1.141,12.381,2.971a2.466,2.466,0,0,0-.866-.692,6.183,6.183,0,0,0-1.284-.487,7.405,7.405,0,0,0-1.38-.233A3.774,3.774,0,0,0,7.7,1.63a5.4,5.4,0,0,0-.9.323,7.666,7.666,0,0,0-.839.455c-.272.168-.537.351-.8.539s-.517.384-.772.577c-.35.27-.7.542-1.05.823s-.686.57-1.009.874a10.373,10.373,0,0,0-.908.963A7.278,7.278,0,0,0,.679,7.271a5.387,5.387,0,0,0-.5,1.242A5.079,5.079,0,0,0,0,9.84a4.093,4.093,0,0,0,.205,1.288,3.3,3.3,0,0,0,.639,1.125,7.027,7.027,0,0,1,.809,1.5c.3.683.636,1.5.984,2.288a18.243,18.243,0,0,0,1.071,2.141c.362.585.724.991,1.071,1.06l.7.14.644.125q.309.059.594.109t.548.093a6.676,6.676,0,0,1,.608-.724c.235-.253.489-.517.72-.786a4.445,4.445,0,0,0,.582-.821,1.482,1.482,0,0,0,.192-.831,1.324,1.324,0,0,1,.488.549,1.665,1.665,0,0,1,.141.686,4.459,4.459,0,0,1-.072.779c-.044.271-.1.55-.149.831a50.571,50.571,0,0,1-2.467,6.555c-1.3,3.108-2.885,6.812-4.2,10.132A42.241,42.241,0,0,0,.565,43.908c-.2,1.572.442,1.781,2.483-.353q.3.179.642.351t.71.339q.371.166.775.326t.835.312q.733-1.107,1.4-2.308T8.656,40.1q.583-1.271,1.08-2.6t.893-2.694l.008.067a7.582,7.582,0,0,0,.619,2.246,7.807,7.807,0,0,0,1.237,1.926,8.072,8.072,0,0,0,1.742,1.5,8.177,8.177,0,0,0,2.134.964,26.471,26.471,0,0,0,8.7,1.081,20.211,20.211,0,0,0,7.429-1.776,17.867,17.867,0,0,0,5.77-4.2,18.567,18.567,0,0,0,3.719-6.2,12.043,12.043,0,0,0-.806-1.424,3.84,3.84,0,0,0-.546-.666,1.072,1.072,0,0,0-.291-.2c-.055-.024-.068-.021-.04-.04a2.9,2.9,0,0,1,1.248-.475,2.963,2.963,0,0,1,2.382.756,2.909,2.909,0,0,1,.748,1.106q.074.194.145.374t.138.342q.067.163.13.308t.121.27c.445-1.592.911-2.728,1.254-3.739a7.71,7.71,0,0,0,.512-2.981,13.024,13.024,0,0,0-1.1-4.195c-.731-1.82-1.875-4.171-3.577-7.381Z" transform="translate(51.385 2.986)"/><path class="e" d="M1.367,8.874.113,2.47C.086,2.335.06,2.2.04,2.059A3.535,3.535,0,0,1,0,1.645a2.025,2.025,0,0,1,.026-.406A1.412,1.412,0,0,1,.15.854,1.287,1.287,0,0,1,.467.449,1.6,1.6,0,0,1,.912.181,1.989,1.989,0,0,1,1.429.05a2.1,2.1,0,0,1,.534.006,1.706,1.706,0,0,1,.5.159,5.151,5.151,0,0,1,.463.261c.152.093.3.187.462.266a1.811,1.811,0,0,0,.494.171A6.967,6.967,0,0,0,5.787.877,7.016,7.016,0,0,1,7.7.839,2.416,2.416,0,0,1,9.316,1.854a7,7,0,0,1,1.037,3.12A2.522,2.522,0,0,0,11.21,6.5a7.934,7.934,0,0,0,1.635,1.071c.609.324,1.248.637,1.819,1A4.4,4.4,0,0,1,16.073,9.9a6.879,6.879,0,0,1,.773,1.761,6.675,6.675,0,0,1,.255,1.9,5.336,5.336,0,0,1-.34,1.832,4.243,4.243,0,0,1-1.012,1.543,4.3,4.3,0,0,1-1.242.831,5.168,5.168,0,0,1-1.449.4,6.161,6.161,0,0,1-1.531,0,6.483,6.483,0,0,1-1.488-.366,8.228,8.228,0,0,1-1.357-.664,10.619,10.619,0,0,1-1.233-.878,14.957,14.957,0,0,1-1.127-1.031c-.36-.362-.7-.74-1.037-1.122s-.658-.773-.982-1.164-.648-.783-.977-1.168-.666-.764-1.016-1.13S1.6,9.93,1.213,9.6" transform="translate(83.848 0)"/><path class="c" d="M11.133,13.243a22.84,22.84,0,0,1-3.381-.711,15.073,15.073,0,0,1-2.787-1.119A10.527,10.527,0,0,1,2.782,9.891a8.523,8.523,0,0,1-1.573-1.92A8.44,8.44,0,0,1,.165,5.194a9.983,9.983,0,0,1-.14-2.518A11.072,11.072,0,0,1,.31.818,7.575,7.575,0,0,1,.544.024L1.579.406a6.688,6.688,0,0,0-.187.656A10.214,10.214,0,0,0,1.139,2.71a9.044,9.044,0,0,0,.113,2.248,7.287,7.287,0,0,0,.911,2.454A7.449,7.449,0,0,0,3.586,9.127a9.569,9.569,0,0,0,2,1.364A14.159,14.159,0,0,0,8.155,11.5a21.908,21.908,0,0,0,3.131.65l-.153,1.094Z" transform="translate(83.508 5.358)"/></g><path class="c" d="M10.812,23.969q.845-2.2,1.831-3.285T15.1,19.091q1.474-.51,2.353-1.065t1.237-1.49q.874-2.277-1.086-3.023-.9-.345-1.717.106t-1.277,1.57L9.52,13.248q1.187-3,3.7-3.972t5.892.317q3.363,1.281,4.614,3.537t.151,5.122q-.48,1.251-1.372,2.087t-2.4,1.486l-2.353.952q-1.011.427-1.584,1.064t-1.043,1.771ZM8.435,28.315q.428-1.115,1.509-1.524t2.287.051q1.206.46,1.738,1.483t.1,2.139q-.428,1.115-1.51,1.524t-2.287-.052q-1.206-.46-1.737-1.483T8.435,28.315Z" transform="translate(98.514 0)"/></g></svg>