<svg xmlns="http://www.w3.org/2000/svg" xmlns:xlink="http://www.w3.org/1999/xlink" width="1366" height="892" viewBox="0 0 1366 892"><defs><linearGradient id="a" x1="0.315" y1="-0.116" x2="0.852" y2="0.895" gradientUnits="objectBoundingBox"><stop offset="0" stop-color="#dcbe87"/><stop offset="1" stop-color="#ef5d58"/></linearGradient><clipPath id="c"><rect width="1366" height="892"/></clipPath></defs><g id="b" clip-path="url(#c)"><rect width="1366" height="892" fill="#fff"/><path d="M5197.295-21.137s-171.815,233.155-283.973,367.4S4712.872,480.5,4801.166,633.582s169.429,186.053,90.68,292.033,1023.3,132.766,1023.3,132.766L5896.488-44.688Z" transform="translate(-4518.704 -47.875)" fill="url(#a)"/><g transform="translate(0 57)"><rect width="464" height="605" transform="translate(71 76)" fill="#fff"/><text transform="translate(254 169)" fill="#325453" font-size="30" font-family="Roboto-Bold, Roboto" font-weight="700"><tspan x="0" y="0">LOGIN</tspan></text><g transform="translate(145 205)"><g transform="translate(0 19.965)" fill="#fff" stroke="#ef5d58" stroke-width="2"><rect width="316.116" height="44.367" rx="10" stroke="none"/><rect x="1" y="1" width="314.116" height="42.367" rx="9" fill="none"/></g><text transform="translate(16.638 45.494)" fill="#ef5d58" font-size="13" font-family="Roboto-Medium, Roboto" font-weight="500"><tspan x="0" y="0">error@mail.com</tspan></text><text transform="translate(0 10)" fill="#ef5d58" font-size="13" font-family="Roboto-Medium, Roboto" font-weight="500"><tspan x="0" y="0">E-mail</tspan></text></g><g transform="translate(145 297)"><g transform="translate(0 23.293)" fill="#fff" stroke="#ef5d58" stroke-width="2"><rect width="316.116" height="42.149" rx="10" stroke="none"/><rect x="1" y="1" width="314.116" height="40.149" rx="9" fill="none"/></g><text transform="translate(16.638 46.712)" fill="#ef5d58" font-size="12" font-family="SegoeUI-Semibold, Segoe UI" font-weight="600"><tspan x="0" y="0">●●●●●●●</tspan></text><text transform="translate(0 10)" fill="#ef5d58" font-size="12" font-family="Roboto-Medium, Roboto" font-weight="500"><tspan x="0" y="0">Password</tspan></text></g><g transform="translate(159 476)"><rect width="288.386" height="41.04" rx="4" fill="#ef5d58"/><text transform="translate(141.883 22.638)" fill="#fff" font-size="7" font-family="Arial-BoldMT, Arial" font-weight="700"><tspan x="-11.083" y="0">LOGIN</tspan></text></g><text transform="translate(251 402)" fill="#517174" font-size="13" font-family="ArialMT, Arial"><tspan x="0" y="0">Forgot password?</tspan></text><text transform="translate(248 445)" fill="#517174" font-size="13" font-family="ArialMT, Arial"><tspan x="0" y="0">Don&apos;t have account</tspan></text><text transform="translate(296 554)" fill="#517174" font-size="14" font-family="ArialMT, Arial"><tspan x="0" y="0">OR</tspan></text><line x2="78.295" transform="translate(267.353 580.96)" fill="none" stroke="#517174" stroke-width="1"/><g transform="translate(215.292 604.921)"><g transform="translate(126.152 0)"><g fill="none"><path d="M24.632,0A24.632,24.632,0,1,1,0,24.632,24.632,24.632,0,0,1,24.632,0Z" stroke="none"/><path d="M 24.63202857971191 1 C 21.44128799438477 1 18.34651947021484 1.624691009521484 15.43368911743164 2.856712341308594 C 12.61972045898438 4.046920776367188 10.09230804443359 5.751022338867188 7.921657562255859 7.921661376953125 C 5.751018524169922 10.09231185913086 4.046916961669922 12.61972045898438 2.856708526611328 15.43368911743164 C 1.624687194824219 18.34652137756348 1 21.4412899017334 1 24.63203048706055 C 1 27.8227710723877 1.624687194824219 30.91753959655762 2.856708526611328 33.83037185668945 C 4.046916961669922 36.64434051513672 5.751018524169922 39.17174911499023 7.921657562255859 41.34239959716797 C 10.09230804443359 43.51303863525391 12.61972045898438 45.21714019775391 15.43368911743164 46.4073486328125 C 18.34651947021484 47.63936996459961 21.44128799438477 48.26406097412109 24.63202857971191 48.26406097412109 C 27.82276916503906 48.26406097412109 30.91753768920898 47.63936996459961 33.83036804199219 46.4073486328125 C 36.64434051513672 45.21714019775391 39.17174911499023 43.51303863525391 41.34239959716797 41.34239959716797 C 43.51303863525391 39.17174911499023 45.21714019775391 36.64434051513672 46.4073486328125 33.83037185668945 C 47.63936996459961 30.91753959655762 48.26405715942383 27.8227710723877 48.26405715942383 24.63203048706055 C 48.26405715942383 21.4412899017334 47.63936996459961 18.34652137756348 46.4073486328125 15.43368911743164 C 45.21714019775391 12.61972045898438 43.51303863525391 10.09231185913086 41.34239959716797 7.921661376953125 C 39.17174911499023 5.751022338867188 36.64434051513672 4.046920776367188 33.83036804199219 2.856712341308594 C 30.91753768920898 1.624691009521484 27.82276916503906 1 24.63202857971191 1 M 24.63202857971191 0 C 38.23591995239258 0 49.26405715942383 11.02814102172852 49.26405715942383 24.63203048706055 C 49.26405715942383 38.23591995239258 38.23591995239258 49.26406097412109 24.63202857971191 49.26406097412109 C 11.02813720703125 49.26406097412109 0 38.23591995239258 0 24.63203048706055 C 0 11.02814102172852 11.02813720703125 0 24.63202857971191 0 Z" stroke="none" fill="#ef5d58"/></g><g transform="translate(18.041 15.957)"><rect width="14.419" height="14.419" fill="none"/><path d="M14.075,3.871V5.19h-1.32V6.51h-1.32V5.1h-1.32V3.871h1.32V2.551h1.32v1.32Zm-9.589,0H8.709c0,.264.088.44.088.7a4.133,4.133,0,0,1-4.311,4.4A4.487,4.487,0,0,1,4.487,0,4.344,4.344,0,0,1,7.478,1.144L6.246,2.375a2.345,2.345,0,0,0-1.759-.7A2.835,2.835,0,0,0,1.671,4.487,2.779,2.779,0,0,0,4.487,7.3,2.4,2.4,0,0,0,7.038,5.366H4.487Z" transform="translate(0 3.153)" fill="#ef5d58" fill-rule="evenodd"/></g></g><g transform="translate(63.223 0.428)"><g transform="translate(16.637 15.529)"><rect width="13.31" height="13.31" fill="none"/><path d="M42.457,13.417a8.138,8.138,0,0,0,8.211-8.211V4.815a6.356,6.356,0,0,0,1.408-1.486,6.491,6.491,0,0,1-1.642.469,3.042,3.042,0,0,0,1.251-1.564,7.172,7.172,0,0,1-1.8.7A2.793,2.793,0,0,0,47.775,2a2.938,2.938,0,0,0-2.893,2.893,1.524,1.524,0,0,0,.078.626,8.085,8.085,0,0,1-5.943-3.05,3,3,0,0,0-.391,1.486,3.107,3.107,0,0,0,1.251,2.424,2.636,2.636,0,0,1-1.329-.391h0A2.858,2.858,0,0,0,40.893,8.8a2.411,2.411,0,0,1-.782.078,1.331,1.331,0,0,1-.547-.078A2.962,2.962,0,0,0,42.3,10.836a5.9,5.9,0,0,1-3.6,1.251,2.165,2.165,0,0,1-.7-.078,7.381,7.381,0,0,0,4.457,1.408" transform="translate(-37.843 1.191)" fill="#ef5d58" fill-rule="evenodd"/></g><g transform="translate(0)" fill="none" stroke="#ef5d58" stroke-width="1"><ellipse cx="24.402" cy="24.402" rx="24.402" ry="24.402" stroke="none"/><ellipse cx="24.402" cy="24.402" rx="23.902" ry="23.902" fill="none"/></g></g><g transform="translate(0 0.428)"><g transform="translate(17.747 15.529)"><rect width="14.419" height="14.419" fill="none"/><path d="M84.77,14.075V7.663h2.19l.313-2.5h-2.5V3.6c0-.7.235-1.251,1.251-1.251h1.329V.078C87.038.078,86.256,0,85.4,0A3.019,3.019,0,0,0,82.19,3.284V5.161H80v2.5h2.19v6.412Z" transform="translate(-76.806 1.432)" fill="#ef5d58" fill-rule="evenodd"/></g><g fill="none" stroke="#ef5d58" stroke-width="1"><ellipse cx="24.402" cy="24.402" rx="24.402" ry="24.402" stroke="none"/><ellipse cx="24.402" cy="24.402" rx="23.902" ry="23.902" fill="none"/></g></g></g></g><g transform="translate(0 2)"><g transform="translate(792 40)" style="isolation:isolate"><text transform="translate(0 13)" fill="#325453" font-size="14" font-family="Roboto-Regular, Roboto"><tspan x="0" y="0">BOOKS</tspan></text></g><g transform="translate(901 40)"><text transform="translate(0 13)" fill="#325453" font-size="14" font-family="Roboto-Regular, Roboto"><tspan x="0" y="0">ABOUT US</tspan></text></g><g transform="translate(1039 40)"><text transform="translate(0 13)" fill="#325453" font-size="14" font-family="Roboto-Regular, Roboto"><tspan x="0" y="0">LOGIN</tspan></text></g><g transform="translate(1140 33)"><text transform="translate(19 20)" fill="#325453" font-size="14" font-family="Roboto-Regular, Roboto"><tspan x="0" y="0">SIGN UP</tspan></text><g fill="none" stroke="#325453" stroke-width="1"><rect width="91" height="30" stroke="none"/><rect x="0.5" y="0.5" width="90" height="29" fill="none"/></g></g><g transform="translate(139 33)"><path d="M12.036,31a31.583,31.583,0,0,1-6.842-.663A26.18,26.18,0,0,1,0,28.686l1.55-7.17h.838a14.793,14.793,0,0,0,4.887,2.925,17.111,17.111,0,0,0,5.99,1.033,10.032,10.032,0,0,0,4.845-.894,2.793,2.793,0,0,0,1.543-2.562,2.262,2.262,0,0,0-.251-1.075,2.751,2.751,0,0,0-.977-.894,10.339,10.339,0,0,0-1.983-.873q-1.243-.433-3.239-1a35.494,35.494,0,0,1-3.93-1.306,12.05,12.05,0,0,1-2.988-1.662,6.842,6.842,0,0,1-1.864-2.276,6.9,6.9,0,0,1-.628-3.072A8.273,8.273,0,0,1,7.784,2.681Q11.757,0,18.647,0A34.376,34.376,0,0,1,24.93.544,21.7,21.7,0,0,1,29.922,2.01L28.456,8.9H27.6a12.825,12.825,0,0,0-4.126-2.409,15.8,15.8,0,0,0-5.585-.97,10.032,10.032,0,0,0-4.629.859,2.632,2.632,0,0,0-1.627,2.381,2.506,2.506,0,0,0,.23,1.166,2.513,2.513,0,0,0,.984.9,10.039,10.039,0,0,0,2.025.873q1.4.475,3.253.977,5.027,1.34,7.177,3.156a6.06,6.06,0,0,1,2.15,4.887,8.8,8.8,0,0,1-1.166,4.559,9.076,9.076,0,0,1-3.218,3.2,16.106,16.106,0,0,1-4.887,1.906A28.623,28.623,0,0,1,12.036,31Z" transform="translate(0 0.001)" fill="#ef5d58"/><path d="M75.6,12.45a17.453,17.453,0,0,1-2.674,9.383,18.473,18.473,0,0,1-6.849,6.59,16.846,16.846,0,0,1-5.285,1.829,41.5,41.5,0,0,1-6.59.454H43.37L50.268.777h9.69a28.665,28.665,0,0,1,6.891.7,12.755,12.755,0,0,1,4.189,1.787,10.144,10.144,0,0,1,3.365,3.8A11.868,11.868,0,0,1,75.6,12.45Zm-8.049.7a7.679,7.679,0,0,0-.761-3.526,5.829,5.829,0,0,0-2.36-2.409,6.835,6.835,0,0,0-1.473-.607,10.081,10.081,0,0,0-1.689-.286c-.614-.056-1.319-.084-2.094-.084H56.8L52.383,25.205h3.19a19.547,19.547,0,0,0,2.15-.1,12.776,12.776,0,0,0,1.92-.321,9.215,9.215,0,0,0,1.871-.747,10.2,10.2,0,0,0,4.447-4.44A13.593,13.593,0,0,0,67.546,13.148Z" transform="translate(-13.092 -0.232)" fill="#ef5d58"/></g><g transform="translate(691 40)"><text transform="translate(0 13)" fill="#325453" font-size="14" font-family="Roboto-Regular, Roboto"><tspan x="0" y="0">HOME</tspan></text></g></g><g transform="translate(0 -3082)"><g transform="translate(-20 -749)"><rect width="1366" height="58" transform="translate(20 4665)" fill="#ef5d58"/></g><g transform="translate(137 3939)"><text transform="translate(0 13)" fill="#fff" font-size="14" font-family="Roboto-Regular, Roboto"><tspan x="0" y="0">ABOUT US</tspan></text></g><g transform="translate(280 3939)"><text transform="translate(0 13)" fill="#fff" font-size="14" font-family="Roboto-Regular, Roboto"><tspan x="0" y="0">CONTACT US</tspan></text></g></g><text transform="translate(645 328)" fill="#fff" font-size="38" font-family="Roboto-BoldItalic, Roboto" font-weight="700" font-style="italic"><tspan x="0" y="0">START JOURNEY WITH US</tspan><tspan x="0" y="56">TO </tspan><tspan y="56" fill="#325453">SAVE MONEY</tspan><tspan y="56"> </tspan><tspan x="0" y="112">AND </tspan><tspan y="112" fill="#517174">TIME</tspan></text></g></svg>