<svg xmlns="http://www.w3.org/2000/svg" xmlns:xlink="http://www.w3.org/1999/xlink" width="1366" height="1667" viewBox="0 0 1366 1667"><defs><clipPath id="a"><rect width="1126" height="1264" fill="none"/></clipPath><filter id="b" x="141" y="320.5" width="201" height="273" filterUnits="userSpaceOnUse"><feOffset dx="3" dy="4" input="SourceAlpha"/><feGaussianBlur stdDeviation="3" result="c"/><feFlood flood-opacity="0.161"/><feComposite operator="in" in2="c"/><feComposite in="SourceGraphic"/></filter><filter id="d" x="370" y="320.5" width="201" height="273" filterUnits="userSpaceOnUse"><feOffset dx="3" dy="4" input="SourceAlpha"/><feGaussianBlur stdDeviation="3" result="e"/><feFlood flood-opacity="0.161"/><feComposite operator="in" in2="e"/><feComposite in="SourceGraphic"/></filter><filter id="f" x="599" y="320.5" width="201" height="273" filterUnits="userSpaceOnUse"><feOffset dx="3" dy="4" input="SourceAlpha"/><feGaussianBlur stdDeviation="3" result="g"/><feFlood flood-opacity="0.161"/><feComposite operator="in" in2="g"/><feComposite in="SourceGraphic"/></filter><filter id="h" x="828" y="320.5" width="201" height="273" filterUnits="userSpaceOnUse"><feOffset dx="3" dy="4" input="SourceAlpha"/><feGaussianBlur stdDeviation="3" result="i"/><feFlood flood-opacity="0.161"/><feComposite operator="in" in2="i"/><feComposite in="SourceGraphic"/></filter><filter id="j" x="1057" y="320.5" width="201" height="273" filterUnits="userSpaceOnUse"><feOffset dx="3" dy="4" input="SourceAlpha"/><feGaussianBlur stdDeviation="3" result="k"/><feFlood flood-opacity="0.161"/><feComposite operator="in" in2="k"/><feComposite in="SourceGraphic"/></filter><filter id="l" x="141" y="638.5" width="201" height="273" filterUnits="userSpaceOnUse"><feOffset dx="3" dy="4" input="SourceAlpha"/><feGaussianBlur stdDeviation="3" result="m"/><feFlood flood-opacity="0.161"/><feComposite operator="in" in2="m"/><feComposite in="SourceGraphic"/></filter><filter id="n" x="370" y="638.5" width="201" height="273" filterUnits="userSpaceOnUse"><feOffset dx="3" dy="4" input="SourceAlpha"/><feGaussianBlur stdDeviation="3" result="o"/><feFlood flood-opacity="0.161"/><feComposite operator="in" in2="o"/><feComposite in="SourceGraphic"/></filter><filter id="p" x="599" y="638.5" width="201" height="273" filterUnits="userSpaceOnUse"><feOffset dx="3" dy="4" input="SourceAlpha"/><feGaussianBlur stdDeviation="3" result="q"/><feFlood flood-opacity="0.161"/><feComposite operator="in" in2="q"/><feComposite in="SourceGraphic"/></filter><filter id="r" x="828" y="638.5" width="201" height="273" filterUnits="userSpaceOnUse"><feOffset dx="3" dy="4" input="SourceAlpha"/><feGaussianBlur stdDeviation="3" result="s"/><feFlood flood-opacity="0.161"/><feComposite operator="in" in2="s"/><feComposite in="SourceGraphic"/></filter><filter id="t" x="1057" y="638.5" width="201" height="273" filterUnits="userSpaceOnUse"><feOffset dx="3" dy="4" input="SourceAlpha"/><feGaussianBlur stdDeviation="3" result="u"/><feFlood flood-opacity="0.161"/><feComposite operator="in" in2="u"/><feComposite in="SourceGraphic"/></filter><filter id="v" x="141" y="956.5" width="201" height="273" filterUnits="userSpaceOnUse"><feOffset dx="3" dy="4" input="SourceAlpha"/><feGaussianBlur stdDeviation="3" result="w"/><feFlood flood-opacity="0.161"/><feComposite operator="in" in2="w"/><feComposite in="SourceGraphic"/></filter><filter id="x" x="370" y="956.5" width="201" height="273" filterUnits="userSpaceOnUse"><feOffset dx="3" dy="4" input="SourceAlpha"/><feGaussianBlur stdDeviation="3" result="y"/><feFlood flood-opacity="0.161"/><feComposite operator="in" in2="y"/><feComposite in="SourceGraphic"/></filter><filter id="z" x="599" y="956.5" width="201" height="273" filterUnits="userSpaceOnUse"><feOffset dx="3" dy="4" input="SourceAlpha"/><feGaussianBlur stdDeviation="3" result="aa"/><feFlood flood-opacity="0.161"/><feComposite operator="in" in2="aa"/><feComposite in="SourceGraphic"/></filter><filter id="ab" x="828" y="956.5" width="201" height="273" filterUnits="userSpaceOnUse"><feOffset dx="3" dy="4" input="SourceAlpha"/><feGaussianBlur stdDeviation="3" result="ac"/><feFlood flood-opacity="0.161"/><feComposite operator="in" in2="ac"/><feComposite in="SourceGraphic"/></filter><filter id="ad" x="1057" y="956.5" width="201" height="273" filterUnits="userSpaceOnUse"><feOffset dx="3" dy="4" input="SourceAlpha"/><feGaussianBlur stdDeviation="3" result="ae"/><feFlood flood-opacity="0.161"/><feComposite operator="in" in2="ae"/><feComposite in="SourceGraphic"/></filter><filter id="af" x="141" y="1274.5" width="201" height="273" filterUnits="userSpaceOnUse"><feOffset dx="3" dy="4" input="SourceAlpha"/><feGaussianBlur stdDeviation="3" result="ag"/><feFlood flood-opacity="0.161"/><feComposite operator="in" in2="ag"/><feComposite in="SourceGraphic"/></filter><filter id="ah" x="370" y="1274.5" width="201" height="273" filterUnits="userSpaceOnUse"><feOffset dx="3" dy="4" input="SourceAlpha"/><feGaussianBlur stdDeviation="3" result="ai"/><feFlood flood-opacity="0.161"/><feComposite operator="in" in2="ai"/><feComposite in="SourceGraphic"/></filter><filter id="aj" x="599" y="1274.5" width="201" height="273" filterUnits="userSpaceOnUse"><feOffset dx="3" dy="4" input="SourceAlpha"/><feGaussianBlur stdDeviation="3" result="ak"/><feFlood flood-opacity="0.161"/><feComposite operator="in" in2="ak"/><feComposite in="SourceGraphic"/></filter><filter id="al" x="828" y="1274.5" width="201" height="273" filterUnits="userSpaceOnUse"><feOffset dx="3" dy="4" input="SourceAlpha"/><feGaussianBlur stdDeviation="3" result="am"/><feFlood flood-opacity="0.161"/><feComposite operator="in" in2="am"/><feComposite in="SourceGraphic"/></filter><filter id="an" x="1057" y="1274.5" width="201" height="273" filterUnits="userSpaceOnUse"><feOffset dx="3" dy="4" input="SourceAlpha"/><feGaussianBlur stdDeviation="3" result="ao"/><feFlood flood-opacity="0.161"/><feComposite operator="in" in2="ao"/><feComposite in="SourceGraphic"/></filter><clipPath id="aq"><rect width="1366" height="1667"/></clipPath></defs><g id="ap" clip-path="url(#aq)"><rect width="1366" height="1667" fill="#fff"/><g transform="translate(0 2)"><g transform="translate(792 40)" style="isolation:isolate"><text transform="translate(0 13)" fill="#325453" font-size="14" font-family="Roboto-Regular, Roboto"><tspan x="0" y="0">BOOKS</tspan></text></g><g transform="translate(901 40)"><text transform="translate(0 13)" fill="#325453" font-size="14" font-family="Roboto-Regular, Roboto"><tspan x="0" y="0">ABOUT US</tspan></text></g><g transform="translate(1039 40)"><text transform="translate(0 13)" fill="#325453" font-size="14" font-family="Roboto-Regular, Roboto"><tspan x="0" y="0">LOGIN</tspan></text></g><g transform="translate(1140 33)"><text transform="translate(19 20)" fill="#325453" font-size="14" font-family="Roboto-Regular, Roboto"><tspan x="0" y="0">SIGN UP</tspan></text><g fill="none" stroke="#325453" stroke-width="1"><rect width="91" height="30" stroke="none"/><rect x="0.5" y="0.5" width="90" height="29" fill="none"/></g></g><g transform="translate(139 33)"><path d="M12.036,31a31.583,31.583,0,0,1-6.842-.663A26.18,26.18,0,0,1,0,28.686l1.55-7.17h.838a14.793,14.793,0,0,0,4.887,2.925,17.111,17.111,0,0,0,5.99,1.033,10.032,10.032,0,0,0,4.845-.894,2.793,2.793,0,0,0,1.543-2.562,2.262,2.262,0,0,0-.251-1.075,2.751,2.751,0,0,0-.977-.894,10.339,10.339,0,0,0-1.983-.873q-1.243-.433-3.239-1a35.494,35.494,0,0,1-3.93-1.306,12.05,12.05,0,0,1-2.988-1.662,6.842,6.842,0,0,1-1.864-2.276,6.9,6.9,0,0,1-.628-3.072A8.273,8.273,0,0,1,7.784,2.681Q11.757,0,18.647,0A34.376,34.376,0,0,1,24.93.544,21.7,21.7,0,0,1,29.922,2.01L28.456,8.9H27.6a12.825,12.825,0,0,0-4.126-2.409,15.8,15.8,0,0,0-5.585-.97,10.032,10.032,0,0,0-4.629.859,2.632,2.632,0,0,0-1.627,2.381,2.506,2.506,0,0,0,.23,1.166,2.513,2.513,0,0,0,.984.9,10.039,10.039,0,0,0,2.025.873q1.4.475,3.253.977,5.027,1.34,7.177,3.156a6.06,6.06,0,0,1,2.15,4.887,8.8,8.8,0,0,1-1.166,4.559,9.076,9.076,0,0,1-3.218,3.2,16.106,16.106,0,0,1-4.887,1.906A28.623,28.623,0,0,1,12.036,31Z" transform="translate(0 0.001)" fill="#ef5d58"/><path d="M75.6,12.45a17.453,17.453,0,0,1-2.674,9.383,18.473,18.473,0,0,1-6.849,6.59,16.846,16.846,0,0,1-5.285,1.829,41.5,41.5,0,0,1-6.59.454H43.37L50.268.777h9.69a28.665,28.665,0,0,1,6.891.7,12.755,12.755,0,0,1,4.189,1.787,10.144,10.144,0,0,1,3.365,3.8A11.868,11.868,0,0,1,75.6,12.45Zm-8.049.7a7.679,7.679,0,0,0-.761-3.526,5.829,5.829,0,0,0-2.36-2.409,6.835,6.835,0,0,0-1.473-.607,10.081,10.081,0,0,0-1.689-.286c-.614-.056-1.319-.084-2.094-.084H56.8L52.383,25.205h3.19a19.547,19.547,0,0,0,2.15-.1,12.776,12.776,0,0,0,1.92-.321,9.215,9.215,0,0,0,1.871-.747,10.2,10.2,0,0,0,4.447-4.44A13.593,13.593,0,0,0,67.546,13.148Z" transform="translate(-13.092 -0.232)" fill="#ef5d58"/></g><g transform="translate(691 40)"><text transform="translate(0 13)" fill="#325453" font-size="14" font-family="Roboto-Regular, Roboto"><tspan x="0" y="0">HOME</tspan></text></g></g><g transform="translate(141 320.5)" clip-path="url(#a)"><g transform="translate(-133 -303.422)"><g transform="translate(139 308.422)"><text transform="translate(37 289)" fill="#517174" font-size="16" font-family="Roboto-Bold, Roboto" font-weight="700"><tspan x="0" y="0">Rick and Morty</tspan></text><g transform="matrix(1, 0, 0, 1, -147, -325.5)" filter="url(#b)"><rect width="183" height="255" transform="translate(147 325.5)" fill="rgba(241,249,255,0.94)"/></g></g></g><g transform="translate(96 -303.422)"><g transform="translate(139 308.422)"><text transform="translate(37 289)" fill="#517174" font-size="16" font-family="Roboto-Bold, Roboto" font-weight="700"><tspan x="0" y="0">Rick and Morty</tspan></text><g transform="matrix(1, 0, 0, 1, -376, -325.5)" filter="url(#d)"><rect width="183" height="255" transform="translate(376 325.5)" fill="rgba(241,249,255,0.94)"/></g></g></g><g transform="translate(325 -303.422)"><g transform="translate(139 308.422)"><text transform="translate(37 289)" fill="#517174" font-size="16" font-family="Roboto-Bold, Roboto" font-weight="700"><tspan x="0" y="0">Rick and Morty</tspan></text><g transform="matrix(1, 0, 0, 1, -605, -325.5)" filter="url(#f)"><rect width="183" height="255" transform="translate(605 325.5)" fill="rgba(241,249,255,0.94)"/></g></g></g><g transform="translate(554 -303.422)"><g transform="translate(139 308.422)"><text transform="translate(37 289)" fill="#517174" font-size="16" font-family="Roboto-Bold, Roboto" font-weight="700"><tspan x="0" y="0">Rick and Morty</tspan></text><g transform="matrix(1, 0, 0, 1, -834, -325.5)" filter="url(#h)"><rect width="183" height="255" transform="translate(834 325.5)" fill="rgba(241,249,255,0.94)"/></g></g></g><g transform="translate(783 -303.422)"><g transform="translate(139 308.422)"><text transform="translate(37 289)" fill="#517174" font-size="16" font-family="Roboto-Bold, Roboto" font-weight="700"><tspan x="0" y="0">Rick and Morty</tspan></text><g transform="matrix(1, 0, 0, 1, -1063, -325.5)" filter="url(#j)"><rect width="183" height="255" transform="translate(1063 325.5)" fill="rgba(241,249,255,0.94)"/></g></g></g><g transform="translate(-133 14.578)"><g transform="translate(139 308.422)"><text transform="translate(37 289)" fill="#517174" font-size="16" font-family="Roboto-Bold, Roboto" font-weight="700"><tspan x="0" y="0">Rick and Morty</tspan></text><g transform="matrix(1, 0, 0, 1, -147, -643.5)" filter="url(#l)"><rect width="183" height="255" transform="translate(147 643.5)" fill="rgba(241,249,255,0.94)"/></g></g></g><g transform="translate(96 14.578)"><g transform="translate(139 308.422)"><text transform="translate(37 289)" fill="#517174" font-size="16" font-family="Roboto-Bold, Roboto" font-weight="700"><tspan x="0" y="0">Rick and Morty</tspan></text><g transform="matrix(1, 0, 0, 1, -376, -643.5)" filter="url(#n)"><rect width="183" height="255" transform="translate(376 643.5)" fill="rgba(241,249,255,0.94)"/></g></g></g><g transform="translate(325 14.578)"><g transform="translate(139 308.422)"><text transform="translate(37 289)" fill="#517174" font-size="16" font-family="Roboto-Bold, Roboto" font-weight="700"><tspan x="0" y="0">Rick and Morty</tspan></text><g transform="matrix(1, 0, 0, 1, -605, -643.5)" filter="url(#p)"><rect width="183" height="255" transform="translate(605 643.5)" fill="rgba(241,249,255,0.94)"/></g></g></g><g transform="translate(554 14.578)"><g transform="translate(139 308.422)"><text transform="translate(37 289)" fill="#517174" font-size="16" font-family="Roboto-Bold, Roboto" font-weight="700"><tspan x="0" y="0">Rick and Morty</tspan></text><g transform="matrix(1, 0, 0, 1, -834, -643.5)" filter="url(#r)"><rect width="183" height="255" transform="translate(834 643.5)" fill="rgba(241,249,255,0.94)"/></g></g></g><g transform="translate(783 14.578)"><g transform="translate(139 308.422)"><text transform="translate(37 289)" fill="#517174" font-size="16" font-family="Roboto-Bold, Roboto" font-weight="700"><tspan x="0" y="0">Rick and Morty</tspan></text><g transform="matrix(1, 0, 0, 1, -1063, -643.5)" filter="url(#t)"><rect width="183" height="255" transform="translate(1063 643.5)" fill="rgba(241,249,255,0.94)"/></g></g></g><g transform="translate(-133 332.578)"><g transform="translate(139 308.422)"><text transform="translate(37 289)" fill="#517174" font-size="16" font-family="Roboto-Bold, Roboto" font-weight="700"><tspan x="0" y="0">Rick and Morty</tspan></text><g transform="matrix(1, 0, 0, 1, -147, -961.5)" filter="url(#v)"><rect width="183" height="255" transform="translate(147 961.5)" fill="rgba(241,249,255,0.94)"/></g></g></g><g transform="translate(96 332.578)"><g transform="translate(139 308.422)"><text transform="translate(37 289)" fill="#517174" font-size="16" font-family="Roboto-Bold, Roboto" font-weight="700"><tspan x="0" y="0">Rick and Morty</tspan></text><g transform="matrix(1, 0, 0, 1, -376, -961.5)" filter="url(#x)"><rect width="183" height="255" transform="translate(376 961.5)" fill="rgba(241,249,255,0.94)"/></g></g></g><g transform="translate(325 332.578)"><g transform="translate(139 308.422)"><text transform="translate(37 289)" fill="#517174" font-size="16" font-family="Roboto-Bold, Roboto" font-weight="700"><tspan x="0" y="0">Rick and Morty</tspan></text><g transform="matrix(1, 0, 0, 1, -605, -961.5)" filter="url(#z)"><rect width="183" height="255" transform="translate(605 961.5)" fill="rgba(241,249,255,0.94)"/></g></g></g><g transform="translate(554 332.578)"><g transform="translate(139 308.422)"><text transform="translate(37 289)" fill="#517174" font-size="16" font-family="Roboto-Bold, Roboto" font-weight="700"><tspan x="0" y="0">Rick and Morty</tspan></text><g transform="matrix(1, 0, 0, 1, -834, -961.5)" filter="url(#ab)"><rect width="183" height="255" transform="translate(834 961.5)" fill="rgba(241,249,255,0.94)"/></g></g></g><g transform="translate(783 332.578)"><g transform="translate(139 308.422)"><text transform="translate(37 289)" fill="#517174" font-size="16" font-family="Roboto-Bold, Roboto" font-weight="700"><tspan x="0" y="0">Rick and Morty</tspan></text><g transform="matrix(1, 0, 0, 1, -1063, -961.5)" filter="url(#ad)"><rect width="183" height="255" transform="translate(1063 961.5)" fill="rgba(241,249,255,0.94)"/></g></g></g><g transform="translate(-133 650.578)"><g transform="translate(139 308.422)"><text transform="translate(37 289)" fill="#517174" font-size="16" font-family="Roboto-Bold, Roboto" font-weight="700"><tspan x="0" y="0">Rick and Morty</tspan></text><g transform="matrix(1, 0, 0, 1, -147, -1279.5)" filter="url(#af)"><rect width="183" height="255" transform="translate(147 1279.5)" fill="rgba(241,249,255,0.94)"/></g></g></g><g transform="translate(96 650.578)"><g transform="translate(139 308.422)"><text transform="translate(37 289)" fill="#517174" font-size="16" font-family="Roboto-Bold, Roboto" font-weight="700"><tspan x="0" y="0">Rick and Morty</tspan></text><g transform="matrix(1, 0, 0, 1, -376, -1279.5)" filter="url(#ah)"><rect width="183" height="255" transform="translate(376 1279.5)" fill="rgba(241,249,255,0.94)"/></g></g></g><g transform="translate(325 650.578)"><g transform="translate(139 308.422)"><text transform="translate(37 289)" fill="#517174" font-size="16" font-family="Roboto-Bold, Roboto" font-weight="700"><tspan x="0" y="0">Rick and Morty</tspan></text><g transform="matrix(1, 0, 0, 1, -605, -1279.5)" filter="url(#aj)"><rect width="183" height="255" transform="translate(605 1279.5)" fill="rgba(241,249,255,0.94)"/></g></g></g><g transform="translate(554 650.578)"><g transform="translate(139 308.422)"><text transform="translate(37 289)" fill="#517174" font-size="16" font-family="Roboto-Bold, Roboto" font-weight="700"><tspan x="0" y="0">Rick and Morty</tspan></text><g transform="matrix(1, 0, 0, 1, -834, -1279.5)" filter="url(#al)"><rect width="183" height="255" transform="translate(834 1279.5)" fill="rgba(241,249,255,0.94)"/></g></g></g><g transform="translate(783 650.578)"><g transform="translate(139 308.422)"><text transform="translate(37 289)" fill="#517174" font-size="16" font-family="Roboto-Bold, Roboto" font-weight="700"><tspan x="0" y="0">Rick and Morty</tspan></text><g transform="matrix(1, 0, 0, 1, -1063, -1279.5)" filter="url(#an)"><rect width="183" height="255" transform="translate(1063 1279.5)" fill="rgba(241,249,255,0.94)"/></g></g></g></g><text transform="translate(519 208)" fill="#325453" font-size="30" font-family="Roboto-Bold, Roboto" font-weight="700"><tspan x="0" y="0">PERSONAL DEVELOPMENT</tspan></text><line x2="373" transform="translate(517.5 222.5)" fill="none" stroke="#325453" stroke-linecap="round" stroke-width="2"/><g transform="translate(-9 278)"><g transform="translate(9 -2585)"><g transform="translate(-20 -749)"><rect width="1366" height="58" transform="translate(20 4665)" fill="#ef5d58"/></g><g transform="translate(137 3939)"><text transform="translate(0 13)" fill="#fff" font-size="14" font-family="Roboto-Regular, Roboto"><tspan x="0" y="0">ABOUT US</tspan></text></g><g transform="translate(280 3939)"><text transform="translate(0 13)" fill="#fff" font-size="14" font-family="Roboto-Regular, Roboto"><tspan x="0" y="0">CONTACT US</tspan></text></g></g><g transform="translate(222 980.859)"><g transform="translate(975 362.14)" fill="none" stroke="#fff" stroke-width="2"><rect width="30" height="30" stroke="none"/><rect x="1" y="1" width="28" height="28" fill="none"/></g><g transform="translate(984 371.14)"><path d="M6.028,0l-1.1,1.1L9.081,5.245H0V6.811H9.081L4.932,10.96l1.1,1.1,6.028-6.028Z" transform="translate(0 12.056) rotate(-90)" fill="#fff"/></g></g></g></g></svg>