<svg xmlns="http://www.w3.org/2000/svg" xmlns:xlink="http://www.w3.org/1999/xlink" width="1366" height="927" viewBox="0 0 1366 927"><defs><linearGradient id="a" x1="1" y1="0.015" x2="0.312" y2="1.207" gradientUnits="objectBoundingBox"><stop offset="0" stop-color="#ef5d58"/><stop offset="1" stop-color="#dcbe87"/></linearGradient><clipPath id="c"><rect width="1366" height="927"/></clipPath></defs><g id="b" clip-path="url(#c)"><rect width="1366" height="927" fill="#fff"/><path d="M5197.295-21.137s-171.815,233.155-283.973,367.4S4712.872,480.5,4801.166,633.582s169.429,186.053,90.68,292.033,1023.3,132.766,1023.3,132.766L5896.488-44.688Z" transform="translate(-4471.169 -37.54)" fill="url(#a)"/><text transform="translate(668.535 363)" fill="#fff" font-size="38" font-family="Roboto-BoldItalic, Roboto" font-weight="700" font-style="italic"><tspan x="0" y="0">BECOME THE PART OF OUR JOURNEY </tspan><tspan x="0" y="56">TO </tspan><tspan y="56" fill="#325453">SAVE MONEY</tspan><tspan y="56"> </tspan><tspan x="0" y="112">AND </tspan><tspan y="112" fill="#517174">TIME</tspan></text><g transform="translate(0 -1)"><rect width="552" height="716" transform="translate(36 114)" fill="#fff"/><text transform="translate(236 177)" fill="#325453" font-size="30" font-family="Roboto-Bold, Roboto" font-weight="700"><tspan x="0" y="0">REGISTER</tspan></text><g transform="translate(170 359.227)"><g transform="translate(0 20.744)" fill="#fff" stroke="#ef5d58" stroke-width="2"><rect width="294.562" height="40.45" rx="10" stroke="none"/><rect x="1" y="1" width="292.562" height="38.45" rx="9" fill="none"/></g><text transform="translate(15.558 43.19)" fill="#ef5d58" font-size="14" font-family="Roboto-Regular, Roboto"><tspan x="0" y="0">error@mail.com</tspan></text><text transform="translate(0 10)" fill="#ef5d58" font-size="14" font-family="Roboto-Regular, Roboto"><tspan x="0" y="0">E-mail</tspan></text></g><g transform="translate(170 458.654)"><g transform="translate(0 20.744)" fill="none" stroke="#ef5d58" stroke-width="2"><rect width="294.562" height="40.45" rx="10" stroke="none"/><rect x="1" y="1" width="292.562" height="38.45" rx="9" fill="none"/></g><text transform="translate(15.558 44.19)" fill="#ef5d58" font-size="14" font-family="SegoeUI, Segoe UI"><tspan x="0" y="0">●●●●●●●</tspan></text><text transform="translate(0 10)" fill="#ef5d58" font-size="14" font-family="Roboto-Regular, Roboto"><tspan x="0" y="0">Password</tspan></text></g><g transform="translate(183 604.689)"><rect width="259" height="38" rx="4" fill="#ef5d58"/><text transform="translate(127 21)" fill="#fff" font-size="11" font-family="Roboto-Medium, Roboto" font-weight="500"><tspan x="-25.037" y="0">REGISTER</tspan></text></g><text transform="translate(252.5 569.082)" fill="#517174" font-size="14" font-family="Roboto-Regular, Roboto"><tspan x="0" y="0">Already have account</tspan></text><text transform="translate(305 700)" fill="#ef5d58" font-size="11" font-family="Roboto-Medium, Roboto" font-weight="500"><tspan x="0" y="0">OR</tspan></text><line x2="70.457" transform="translate(276.5 716.385)" fill="none" stroke="#ef5d58" stroke-width="1"/><g transform="translate(233 747.567)"><g transform="translate(113 0)"><g transform="translate(0 0.433)" fill="none" stroke="#ef5d58" stroke-width="1"><ellipse cx="22.5" cy="22" rx="22.5" ry="22" stroke="none"/><ellipse cx="22.5" cy="22" rx="22" ry="21.5" fill="none"/></g><g transform="translate(16.644 14.928)"><rect width="12" height="13" transform="translate(0.356 0.505)" fill="none"/><path d="M12.666,3.483V4.671H11.479V5.858H10.291V4.592H9.1V3.483h1.187V2.3h1.187V3.483Zm-8.629,0h3.8c0,.237.079.4.079.633A3.719,3.719,0,0,1,4.037,8.075,4.037,4.037,0,0,1,4.037,0,3.909,3.909,0,0,1,6.729,1.029L5.621,2.137A2.111,2.111,0,0,0,4.037,1.5,2.551,2.551,0,0,0,1.5,4.037,2.5,2.5,0,0,0,4.037,6.571a2.157,2.157,0,0,0,2.3-1.742h-2.3Z" transform="translate(0 2.592)" fill="#ef5d58" fill-rule="evenodd"/></g></g><g transform="translate(57 0)"><g transform="translate(15 15.433)"><rect width="13" height="13" fill="none"/><path d="M42.011,12.274A7.323,7.323,0,0,0,49.4,4.885V4.533A5.72,5.72,0,0,0,50.666,3.2a5.842,5.842,0,0,1-1.478.422,2.738,2.738,0,0,0,1.126-1.407,6.454,6.454,0,0,1-1.618.633A2.513,2.513,0,0,0,46.8,2a2.644,2.644,0,0,0-2.6,2.6,1.372,1.372,0,0,0,.07.563,7.275,7.275,0,0,1-5.348-2.744,2.7,2.7,0,0,0-.352,1.337,2.8,2.8,0,0,0,1.126,2.181,2.372,2.372,0,0,1-1.2-.352h0A2.572,2.572,0,0,0,40.6,8.122a2.169,2.169,0,0,1-.7.07,1.2,1.2,0,0,1-.493-.07,2.666,2.666,0,0,0,2.463,1.83,5.313,5.313,0,0,1-3.237,1.126,1.948,1.948,0,0,1-.633-.07,6.642,6.642,0,0,0,4.011,1.267" transform="translate(-37.689 -0.199)" fill="#ef5d58" fill-rule="evenodd"/></g><g transform="translate(0 0.433)" fill="none" stroke="#ef5d58" stroke-width="1"><circle cx="22" cy="22" r="22" stroke="none"/><circle cx="22" cy="22" r="21.5" fill="none"/></g></g><g transform="translate(0 0)"><g transform="translate(16 15.433)"><rect width="12" height="13" fill="none"/><path d="M84.292,12.666V6.9h1.97l.281-2.252H84.292V3.237c0-.633.211-1.126,1.126-1.126h1.2V.07C86.333.07,85.63,0,84.855,0A2.716,2.716,0,0,0,81.97,2.955V4.644H80V6.9h1.97v5.77Z" transform="translate(-76.899 0.217)" fill="#ef5d58" fill-rule="evenodd"/></g><g transform="translate(0 0.433)" fill="none" stroke="#ef5d58" stroke-width="1"><ellipse cx="22.5" cy="22" rx="22.5" ry="22" stroke="none"/><ellipse cx="22.5" cy="22" rx="22" ry="21.5" fill="none"/></g></g></g><g transform="translate(170 259.104)"><g transform="translate(0 20.744)" fill="#fff" stroke="#ef5d58" stroke-width="2"><rect width="294.562" height="41.488" rx="10" stroke="none"/><rect x="1" y="1" width="292.562" height="39.488" rx="9" fill="none"/></g><text transform="translate(15.558 43.19)" fill="#ef5d58" font-size="14" font-family="Roboto-Regular, Roboto"><tspan x="0" y="0">John Doe</tspan></text><text transform="translate(0 10)" fill="#ef5d58" font-size="14" font-family="Roboto-Regular, Roboto"><tspan x="0" y="0">Name</tspan></text></g></g><g transform="translate(0 2)"><g transform="translate(792 40)" style="isolation:isolate"><text transform="translate(0 13)" fill="#325453" font-size="14" font-family="Roboto-Regular, Roboto"><tspan x="0" y="0">BOOKS</tspan></text></g><g transform="translate(901 40)"><text transform="translate(0 13)" fill="#325453" font-size="14" font-family="Roboto-Regular, Roboto"><tspan x="0" y="0">ABOUT US</tspan></text></g><g transform="translate(1039 40)"><text transform="translate(0 13)" fill="#325453" font-size="14" font-family="Roboto-Regular, Roboto"><tspan x="0" y="0">LOGIN</tspan></text></g><g transform="translate(1140 33)"><text transform="translate(19 20)" fill="#325453" font-size="14" font-family="Roboto-Regular, Roboto"><tspan x="0" y="0">SIGN UP</tspan></text><g fill="none" stroke="#325453" stroke-width="1"><rect width="91" height="30" stroke="none"/><rect x="0.5" y="0.5" width="90" height="29" fill="none"/></g></g><g transform="translate(139 33)"><path d="M12.036,31a31.583,31.583,0,0,1-6.842-.663A26.18,26.18,0,0,1,0,28.686l1.55-7.17h.838a14.793,14.793,0,0,0,4.887,2.925,17.111,17.111,0,0,0,5.99,1.033,10.032,10.032,0,0,0,4.845-.894,2.793,2.793,0,0,0,1.543-2.562,2.262,2.262,0,0,0-.251-1.075,2.751,2.751,0,0,0-.977-.894,10.339,10.339,0,0,0-1.983-.873q-1.243-.433-3.239-1a35.494,35.494,0,0,1-3.93-1.306,12.05,12.05,0,0,1-2.988-1.662,6.842,6.842,0,0,1-1.864-2.276,6.9,6.9,0,0,1-.628-3.072A8.273,8.273,0,0,1,7.784,2.681Q11.757,0,18.647,0A34.376,34.376,0,0,1,24.93.544,21.7,21.7,0,0,1,29.922,2.01L28.456,8.9H27.6a12.825,12.825,0,0,0-4.126-2.409,15.8,15.8,0,0,0-5.585-.97,10.032,10.032,0,0,0-4.629.859,2.632,2.632,0,0,0-1.627,2.381,2.506,2.506,0,0,0,.23,1.166,2.513,2.513,0,0,0,.984.9,10.039,10.039,0,0,0,2.025.873q1.4.475,3.253.977,5.027,1.34,7.177,3.156a6.06,6.06,0,0,1,2.15,4.887,8.8,8.8,0,0,1-1.166,4.559,9.076,9.076,0,0,1-3.218,3.2,16.106,16.106,0,0,1-4.887,1.906A28.623,28.623,0,0,1,12.036,31Z" transform="translate(0 0.001)" fill="#ef5d58"/><path d="M75.6,12.45a17.453,17.453,0,0,1-2.674,9.383,18.473,18.473,0,0,1-6.849,6.59,16.846,16.846,0,0,1-5.285,1.829,41.5,41.5,0,0,1-6.59.454H43.37L50.268.777h9.69a28.665,28.665,0,0,1,6.891.7,12.755,12.755,0,0,1,4.189,1.787,10.144,10.144,0,0,1,3.365,3.8A11.868,11.868,0,0,1,75.6,12.45Zm-8.049.7a7.679,7.679,0,0,0-.761-3.526,5.829,5.829,0,0,0-2.36-2.409,6.835,6.835,0,0,0-1.473-.607,10.081,10.081,0,0,0-1.689-.286c-.614-.056-1.319-.084-2.094-.084H56.8L52.383,25.205h3.19a19.547,19.547,0,0,0,2.15-.1,12.776,12.776,0,0,0,1.92-.321,9.215,9.215,0,0,0,1.871-.747,10.2,10.2,0,0,0,4.447-4.44A13.593,13.593,0,0,0,67.546,13.148Z" transform="translate(-13.092 -0.232)" fill="#ef5d58"/></g><g transform="translate(691 40)"><text transform="translate(0 13)" fill="#325453" font-size="14" font-family="Roboto-Regular, Roboto"><tspan x="0" y="0">HOME</tspan></text></g></g><g transform="translate(0 -3047)"><g transform="translate(-20 -749)"><rect width="1366" height="58" transform="translate(20 4665)" fill="#ef5d58"/></g><g transform="translate(137 3939)"><text transform="translate(0 13)" fill="#fff" font-size="14" font-family="Roboto-Regular, Roboto"><tspan x="0" y="0">ABOUT US</tspan></text></g><g transform="translate(280 3939)"><text transform="translate(0 13)" fill="#fff" font-size="14" font-family="Roboto-Regular, Roboto"><tspan x="0" y="0">CONTACT US</tspan></text></g></g></g></svg>