<svg xmlns="http://www.w3.org/2000/svg" width="62.505" height="31" viewBox="0 0 62.505 31"><defs><style>.a{fill:#ef5d58;}</style></defs><path class="a" d="M12.036,31a31.583,31.583,0,0,1-6.842-.663A26.18,26.18,0,0,1,0,28.686l1.55-7.17h.838a14.793,14.793,0,0,0,4.887,2.925,17.111,17.111,0,0,0,5.99,1.033,10.032,10.032,0,0,0,4.845-.894,2.793,2.793,0,0,0,1.543-2.562,2.262,2.262,0,0,0-.251-1.075,2.751,2.751,0,0,0-.977-.894,10.339,10.339,0,0,0-1.983-.873q-1.243-.433-3.239-1a35.494,35.494,0,0,1-3.93-1.306,12.05,12.05,0,0,1-2.988-1.662,6.842,6.842,0,0,1-1.864-2.276,6.9,6.9,0,0,1-.628-3.072A8.273,8.273,0,0,1,7.784,2.681Q11.757,0,18.647,0A34.376,34.376,0,0,1,24.93.544,21.7,21.7,0,0,1,29.922,2.01L28.456,8.9H27.6a12.825,12.825,0,0,0-4.126-2.409,15.8,15.8,0,0,0-5.585-.97,10.032,10.032,0,0,0-4.629.859,2.632,2.632,0,0,0-1.627,2.381,2.506,2.506,0,0,0,.23,1.166,2.513,2.513,0,0,0,.984.9,10.039,10.039,0,0,0,2.025.873q1.4.475,3.253.977,5.027,1.34,7.177,3.156a6.06,6.06,0,0,1,2.15,4.887,8.8,8.8,0,0,1-1.166,4.559,9.076,9.076,0,0,1-3.218,3.2,16.106,16.106,0,0,1-4.887,1.906A28.623,28.623,0,0,1,12.036,31Z" transform="translate(0 0.001)"/><path class="a" d="M75.6,12.45a17.453,17.453,0,0,1-2.674,9.383,18.473,18.473,0,0,1-6.849,6.59,16.846,16.846,0,0,1-5.285,1.829,41.5,41.5,0,0,1-6.59.454H43.37L50.268.777h9.69a28.665,28.665,0,0,1,6.891.7,12.755,12.755,0,0,1,4.189,1.787,10.144,10.144,0,0,1,3.365,3.8A11.868,11.868,0,0,1,75.6,12.45Zm-8.049.7a7.679,7.679,0,0,0-.761-3.526,5.829,5.829,0,0,0-2.36-2.409,6.835,6.835,0,0,0-1.473-.607,10.081,10.081,0,0,0-1.689-.286c-.614-.056-1.319-.084-2.094-.084H56.8L52.383,25.205h3.19a19.547,19.547,0,0,0,2.15-.1,12.776,12.776,0,0,0,1.92-.321,9.215,9.215,0,0,0,1.871-.747,10.2,10.2,0,0,0,4.447-4.44A13.593,13.593,0,0,0,67.546,13.148Z" transform="translate(-13.092 -0.232)"/></svg>